<svg width="18" height="18" viewBox="0 0 18 18" fill="none" xmlns="http://www.w3.org/2000/svg">
<g clip-path="url(#clip0_4421_9961)">
<rect x="2.73242" y="5.14282" width="13.5" height="8.19644" fill="white"/>
<path d="M16.2322 4.5H9.48214C9.216 4.5 9 4.724 9 5C9 5.276 9.216 5.5 9.48214 5.5H14.8272L11.8649 7.889L9.74057 6.488L9.22371 7.332L11.6344 8.92201C11.7125 8.97401 11.8032 9.00001 11.8929 9.00001C11.997 9.00001 12.1021 8.96501 12.1889 8.89501L15.75 6.022V12.5H9.48214C9.216 12.5 9 12.724 9 13C9 13.276 9.216 13.5 9.48214 13.5H16.2322C16.4983 13.5 16.7143 13.276 16.7143 13V5C16.7143 4.724 16.4983 4.5 16.2322 4.5Z" fill="#006FC4"/>
<path d="M9.75239 1.40468C9.64295 1.30697 9.49607 1.2648 9.35782 1.29566L1.67781 2.83845C1.45029 2.8837 1.28613 3.09558 1.28613 3.34345V14.6572C1.28613 14.9041 1.45029 15.117 1.67781 15.1623L9.35782 16.705C9.38662 16.7112 9.41638 16.7143 9.44615 16.7143C9.5575 16.7143 9.66599 16.6732 9.75239 16.596C9.86279 16.4983 9.92615 16.3523 9.92615 16.2V1.80066C9.92615 1.64741 9.86279 1.50239 9.75239 1.40468Z" fill="#006DC3"/>
<path d="M5.62556 12.9426C4.29677 12.9426 3.21484 11.5163 3.21484 9.76362C3.21484 8.01095 4.29677 6.58466 5.62556 6.58466C6.95435 6.58466 8.03628 8.01095 8.03628 9.76362C8.03628 11.5163 6.95435 12.9426 5.62556 12.9426ZM5.62556 7.64431C4.8281 7.64431 4.17913 8.59482 4.17913 9.76362C4.17913 10.9324 4.8281 11.8829 5.62556 11.8829C6.42303 11.8829 7.07199 10.9324 7.07199 9.76362C7.07199 8.59482 6.42303 7.64431 5.62556 7.64431Z" fill="#EFEFEF"/>
</g>
<defs>
<clipPath id="clip0_4421_9961">
<rect width="15.4286" height="15.4286" fill="white" transform="translate(1.28613 1.28571)"/>
</clipPath>
</defs>
</svg>
