<svg width="80" height="80" viewBox="0 0 80 80" fill="none" xmlns="http://www.w3.org/2000/svg">
<g id="icon_banking services">
<g id="Vector">
<path d="M21.9636 22.3333C22.2722 22.3333 22.5682 22.2104 22.7864 21.9916C23.0047 21.7728 23.1273 21.4761 23.1273 21.1667V11.8333C23.1283 10.9054 23.4964 10.0157 24.1508 9.35959C24.8053 8.70343 25.6926 8.33435 26.6182 8.33333H31.9046C32.2132 8.33333 32.5092 8.21042 32.7274 7.99162C32.9456 7.77283 33.0682 7.47609 33.0682 7.16667C33.0682 6.85725 32.9456 6.5605 32.7274 6.34171C32.5092 6.12292 32.2132 6 31.9046 6H26.6182C25.0756 6.00182 23.5968 6.61699 22.5061 7.71056C21.4154 8.80412 20.8018 10.2868 20.8 11.8333V21.1667C20.8 21.4761 20.9226 21.7728 21.1408 21.9916C21.359 22.2104 21.655 22.3333 21.9636 22.3333Z" fill="white"/>
<path d="M45.3352 57.3333C45.3352 57.0239 45.2127 56.7272 44.9944 56.5084C44.7762 56.2896 44.4802 56.1667 44.1716 56.1667H27.7818V53.8584C27.7818 53.549 27.6592 53.2523 27.441 53.0335C27.2228 52.8147 26.9268 52.6917 26.6182 52.6917C26.3096 52.6917 26.0136 52.8147 25.7954 53.0335C25.5771 53.2523 25.4545 53.549 25.4545 53.8584V57.3333C25.4545 57.6428 25.5771 57.9395 25.7954 58.1583C26.0136 58.3771 26.3096 58.5 26.6182 58.5H44.1716C44.4802 58.5 44.7762 58.3771 44.9944 58.1583C45.2127 57.9395 45.3352 57.6428 45.3352 57.3333Z" fill="white"/>
<path d="M30.1091 44.5H14.9818V30.5H30.0841C30.3927 30.5 30.6886 30.3771 30.9069 30.1583C31.1251 29.9395 31.2477 29.6428 31.2477 29.3333C31.2477 29.0239 31.1251 28.7272 30.9069 28.5084C30.6886 28.2896 30.3927 28.1667 30.0841 28.1667H13.8182C13.5096 28.1667 13.2136 28.2896 12.9954 28.5084C12.7771 28.7272 12.6545 29.0239 12.6545 29.3333V45.6667C12.6545 45.9761 12.7771 46.2728 12.9954 46.4916C13.2136 46.7104 13.5096 46.8333 13.8182 46.8333H30.1091C30.4177 46.8333 30.7137 46.7104 30.9319 46.4916C31.1501 46.2728 31.2727 45.9761 31.2727 45.6667C31.2727 45.3572 31.1501 45.0605 30.9319 44.8417C30.7137 44.6229 30.4177 44.5 30.1091 44.5Z" fill="white"/>
<path d="M68.2511 40.2584L60.3636 32.3502V11.8333C60.3618 10.2868 59.7482 8.80412 58.6575 7.71056C57.5668 6.61699 56.0879 6.00182 54.5454 6H38.2545C37.9459 6 37.6499 6.12292 37.4317 6.34171C37.2135 6.5605 37.0909 6.85725 37.0909 7.16667C37.0909 7.47609 37.2135 7.77283 37.4317 7.99162C37.6499 8.21042 37.9459 8.33333 38.2545 8.33333H54.5454C55.471 8.33435 56.3583 8.70343 57.0127 9.35959C57.6672 10.0157 58.0353 10.9054 58.0363 11.8333V45.0833C58.0363 45.3928 58.1589 45.6895 58.3772 45.9083C58.5954 46.1271 58.8914 46.25 59.2 46.25C59.5086 46.25 59.8046 46.1271 60.0228 45.9083C60.241 45.6895 60.3636 45.3928 60.3636 45.0833V35.6498L66.6057 41.908C67.581 42.8809 68.3543 44.0379 68.8807 45.3123C69.4072 46.5867 69.6763 47.9531 69.6727 49.3325V73.6667H46.4V64.4922C46.4017 62.9036 47.0318 61.3805 48.1522 60.2572C49.2725 59.1338 50.7916 58.5019 52.3761 58.5C52.6062 58.5 52.8311 58.4315 53.0225 58.3033C53.2138 58.1752 53.3629 57.993 53.451 57.7798C53.539 57.5667 53.5621 57.3321 53.5172 57.1058C53.4723 56.8795 53.3616 56.6717 53.1989 56.5085L43.4079 46.6921C42.6441 45.9262 42.215 44.8876 42.215 43.8046C42.215 42.7215 42.6441 41.6829 43.4079 40.917C44.1717 40.1512 45.2077 39.721 46.2879 39.721C47.3681 39.721 48.4041 40.1512 49.1679 40.917L62.445 54.2287C62.5524 54.3398 62.6808 54.4283 62.8227 54.4891C62.9646 54.5499 63.1171 54.5818 63.2714 54.583C63.4257 54.5842 63.5787 54.5546 63.7215 54.4959C63.8642 54.4372 63.9939 54.3507 64.103 54.2413C64.2121 54.1319 64.2985 54.0018 64.357 53.8587C64.4155 53.7155 64.445 53.5622 64.4438 53.4075C64.4426 53.2528 64.4108 53.0998 64.3501 52.9576C64.2894 52.8154 64.2011 52.6866 64.0904 52.5789L55.7091 44.1753V11.8333C55.7091 11.5239 55.5865 11.2272 55.3682 11.0084C55.15 10.7896 54.854 10.6667 54.5454 10.6667H48.7272C48.4186 10.6667 48.1227 10.7896 47.9044 11.0084C47.6862 11.2272 47.5636 11.5239 47.5636 11.8333C47.5633 12.1427 47.4407 12.4393 47.2225 12.658C47.0043 12.8767 46.7085 12.9997 46.4 13H34.7636C34.4551 12.9997 34.1593 12.8767 33.9411 12.658C33.7229 12.4393 33.6003 12.1427 33.6 11.8333C33.6 11.5239 33.4774 11.2272 33.2592 11.0084C33.0409 10.7896 32.745 10.6667 32.4363 10.6667H26.6182C26.3096 10.6667 26.0136 10.7896 25.7954 11.0084C25.5771 11.2272 25.4545 11.5239 25.4545 11.8333V23.5H11.4909C10.5654 23.501 9.67804 23.8701 9.02359 24.5263C8.36913 25.1824 8.00102 26.0721 8 27V48C8.00102 48.9279 8.36913 49.8176 9.02359 50.4738C9.67804 51.1299 10.5654 51.499 11.4909 51.5H20.8V62C20.8018 63.5465 21.4154 65.0292 22.5061 66.1228C23.5968 67.2163 25.0757 67.8315 26.6182 67.8333H44.0727V74.8333C44.0727 75.1428 44.1953 75.4395 44.4135 75.6583C44.6317 75.8771 44.9277 76 45.2363 76H70.8363C71.1449 76 71.4409 75.8771 71.6591 75.6583C71.8774 75.4395 72 75.1428 72 74.8333V49.3325C72.0044 47.6466 71.6754 45.9765 71.0319 44.419C70.3884 42.8614 69.4433 41.4473 68.2511 40.2584ZM40.5818 65.5H26.6182C25.6926 65.499 24.8053 65.1299 24.1508 64.4738C23.4964 63.8176 23.1283 62.9279 23.1273 62V51.5H39.8886C40.1972 51.5 40.4932 51.3771 40.7114 51.1583C40.9297 50.9395 41.0523 50.6428 41.0523 50.3333C41.0523 50.0239 40.9297 49.7272 40.7114 49.5084C40.4932 49.2896 40.1972 49.1667 39.8886 49.1667H11.4909C11.1824 49.1664 10.8866 49.0434 10.6684 48.8246C10.4502 48.6059 10.3275 48.3093 10.3273 48V27C10.3275 26.6907 10.4502 26.3941 10.6684 26.1753C10.8866 25.9566 11.1824 25.8336 11.4909 25.8333H48.7272V36.3333C48.7272 36.6428 48.8498 36.9395 49.0681 37.1583C49.2863 37.3771 49.5823 37.5 49.8909 37.5C50.1995 37.5 50.4955 37.3771 50.7137 37.1583C50.9319 36.9395 51.0545 36.6428 51.0545 36.3333V21.1667C51.0545 20.8572 50.9319 20.5605 50.7137 20.3417C50.4955 20.1229 50.1995 20 49.8909 20C49.5823 20 49.2863 20.1229 49.0681 20.3417C48.8498 20.5605 48.7272 20.8572 48.7272 21.1667V23.5H27.7818V13H31.4716C31.7132 13.6819 32.1592 14.2722 32.7486 14.69C33.338 15.1077 34.0418 15.3324 34.7636 15.3333H46.4C47.1218 15.3324 47.8256 15.1077 48.415 14.69C49.0044 14.2722 49.4504 13.6819 49.692 13H53.3818V41.842L50.8136 39.267C49.6134 38.0636 47.9855 37.3876 46.288 37.3876C44.5906 37.3876 42.9627 38.0636 41.7624 39.267C40.5622 40.4704 39.8879 42.1026 39.8879 43.8044C39.8879 45.5063 40.5622 47.1384 41.7624 48.3418L49.9329 56.534C48.237 57.0601 46.7535 58.1163 45.6991 59.5481C44.6447 60.98 44.0748 62.7124 44.0727 64.4922V65.5H40.5818Z" fill="white"/>
<path d="M33.6 30.5C32.2191 30.5 30.8692 30.9105 29.7211 31.6797C28.5729 32.4489 27.6781 33.5421 27.1496 34.8212C26.6212 36.1003 26.4829 37.5078 26.7523 38.8656C27.0217 40.2235 27.6867 41.4708 28.6631 42.4497C29.6395 43.4287 30.8836 44.0954 32.2379 44.3655C33.5922 44.6356 34.996 44.497 36.2718 43.9672C37.5476 43.4373 38.638 42.5401 39.4051 41.389C40.1723 40.2378 40.5818 38.8845 40.5818 37.5C40.5798 35.6441 39.8435 33.8648 38.5346 32.5525C37.2257 31.2402 35.451 30.502 33.6 30.5ZM33.6 42.1667C32.6794 42.1667 31.7795 41.893 31.0141 41.3802C30.2486 40.8674 29.652 40.1386 29.2997 39.2859C28.9475 38.4331 28.8553 37.4948 29.0349 36.5896C29.2145 35.6843 29.6578 34.8528 30.3087 34.2002C30.9597 33.5475 31.789 33.1031 32.6919 32.923C33.5948 32.7429 34.5307 32.8354 35.3812 33.1886C36.2317 33.5418 36.9586 34.1399 37.4701 34.9073C37.9815 35.6748 38.2545 36.577 38.2545 37.5C38.2532 38.7373 37.7624 39.9235 36.8898 40.7984C36.0172 41.6733 34.834 42.1654 33.6 42.1667Z" fill="white"/>
<path d="M44.0727 62C44.0727 61.3078 43.868 60.6311 43.4844 60.0555C43.1008 59.4799 42.5556 59.0313 41.9177 58.7664C41.2798 58.5015 40.5779 58.4322 39.9007 58.5672C39.2236 58.7023 38.6016 59.0356 38.1133 59.5251C37.6251 60.0146 37.2927 60.6383 37.158 61.3172C37.0233 61.9961 37.0924 62.6999 37.3566 63.3394C37.6208 63.9789 38.0683 64.5256 38.6424 64.9101C39.2164 65.2947 39.8914 65.5 40.5818 65.5C41.5073 65.499 42.3947 65.1299 43.0491 64.4738C43.7036 63.8176 44.0717 62.9279 44.0727 62ZM40.5818 63.1667C40.3517 63.1667 40.1267 63.0982 39.9353 62.9701C39.744 62.8419 39.5948 62.6596 39.5067 62.4465C39.4187 62.2333 39.3956 61.9987 39.4405 61.7724C39.4854 61.5461 39.5962 61.3382 39.759 61.175C39.9217 61.0119 40.1291 60.9008 40.3548 60.8558C40.5805 60.8107 40.8145 60.8338 41.0271 60.9221C41.2397 61.0104 41.4215 61.16 41.5493 61.3518C41.6772 61.5437 41.7454 61.7693 41.7454 62C41.7452 62.3093 41.6225 62.6059 41.4043 62.8247C41.1861 63.0434 40.8903 63.1664 40.5818 63.1667Z" fill="white"/>
</g>
</g>
</svg>
