<svg width="80" height="80" viewBox="0 0 80 80" fill="none" xmlns="http://www.w3.org/2000/svg">
<g id="icon_banking services">
<path id="Vector" d="M58.4611 63.9998H8.01326C7.48467 64.0055 6.96025 63.9067 6.47077 63.7092C5.98129 63.5117 5.5366 63.2195 5.16281 62.8497C4.78902 62.4799 4.49366 62.04 4.29404 61.5557C4.09443 61.0715 3.99458 60.5527 4.00037 60.0297C3.99939 53.2456 4.00069 36.1257 4.00037 29.1041C4.00139 28.0515 4.4245 27.0422 5.17685 26.2979C5.9292 25.5536 6.94932 25.135 8.0133 25.134H19.414L63.2967 14.121C64.3249 13.8638 65.4143 14.0201 66.3263 14.5557C67.2383 15.0914 67.8986 15.9626 68.1627 16.9788L75.8707 46.968C76.0045 47.4741 76.0349 48.0016 75.9599 48.5194C75.8849 49.0373 75.7062 49.5351 75.4342 49.9837C75.1622 50.4324 74.8024 50.8227 74.3758 51.1319C73.9493 51.4411 73.4646 51.663 72.9503 51.7844L62.4798 54.4111C62.4734 54.9074 62.4711 59.4124 62.4728 60.0296C62.4786 60.5525 62.3789 61.0712 62.1793 61.5554C61.9798 62.0396 61.6845 62.4795 61.3109 62.8493C60.9372 63.2191 60.4926 63.5114 60.0033 63.7089C59.5139 63.9065 58.9896 64.0054 58.4611 63.9998ZM6.39364 56.3626V60.0297C6.39128 60.2408 6.43156 60.4502 6.51212 60.6457C6.59268 60.8411 6.71189 61.0187 6.86276 61.168C7.01364 61.3172 7.19313 61.4352 7.3907 61.5148C7.58828 61.5945 7.79995 61.6344 8.0133 61.632H58.4611C58.6744 61.6344 58.886 61.5945 59.0835 61.5148C59.281 61.435 59.4604 61.3171 59.6112 61.1678C59.762 61.0185 59.8811 60.841 59.9615 60.6455C60.042 60.4501 60.0821 60.2407 60.0796 60.0297V56.3626H6.39364ZM6.39364 53.9949H60.0796V50.9867H6.39364V53.9949ZM62.4729 49.6734C62.4776 49.7164 62.4799 49.7596 62.4799 49.8029V51.9671L72.365 49.4884C72.5726 49.4401 72.7683 49.3514 72.9408 49.2274C73.1133 49.1033 73.259 48.9465 73.3695 48.7661C73.4799 48.5856 73.5529 48.3852 73.5841 48.1765C73.6152 47.9679 73.604 47.7551 73.5511 47.5508L65.8442 17.5662C65.7368 17.1576 65.4707 16.8074 65.1037 16.5918C64.7368 16.3762 64.2986 16.3125 63.8845 16.4147L29.1471 25.134H58.4611C59.5249 25.1353 60.5448 25.554 61.2969 26.2983C62.049 27.0426 62.4719 28.0516 62.4729 29.1041L62.4729 49.6734ZM6.39364 48.619H60.0796V29.1041C60.0821 28.8931 60.0419 28.6837 59.9615 28.4882C59.881 28.2928 59.7619 28.1152 59.6112 27.966C59.4604 27.8167 59.281 27.6987 59.0835 27.619C58.886 27.5393 58.6744 27.4994 58.4611 27.5017H8.01326C7.7999 27.4994 7.58822 27.5392 7.39065 27.6189C7.19307 27.6986 7.01358 27.8166 6.86271 27.9658C6.71183 28.1151 6.59262 28.2927 6.51206 28.4881C6.4315 28.6836 6.39122 28.893 6.39359 29.1041L6.39364 48.619ZM17.2849 39.472H10.9476C10.7904 39.4721 10.6348 39.4415 10.4895 39.382C10.3443 39.3226 10.2124 39.2354 10.1012 39.1254C9.9901 39.0155 9.90196 38.885 9.84186 38.7413C9.78175 38.5976 9.75086 38.4436 9.75096 38.2881V32.0174C9.75086 31.862 9.78175 31.708 9.84186 31.5643C9.90196 31.4206 9.9901 31.2901 10.1012 31.1801C10.2124 31.0702 10.3443 30.983 10.4895 30.9235C10.6348 30.8641 10.7904 30.8335 10.9476 30.8336H17.2848C17.442 30.8335 17.5976 30.8641 17.7429 30.9235C17.8881 30.983 18.02 31.0702 18.1312 31.1801C18.2423 31.2901 18.3304 31.4206 18.3906 31.5643C18.4507 31.708 18.4816 31.862 18.4815 32.0174V38.2881C18.4816 38.4436 18.4507 38.5976 18.3906 38.7413C18.3304 38.8849 18.2423 39.0155 18.1312 39.1254C18.02 39.2354 17.8881 39.3226 17.7429 39.382C17.5976 39.4415 17.442 39.4721 17.2849 39.472ZM12.1443 37.1043H16.0882V33.2013H12.1442L12.1443 37.1043ZM52.4266 38.3575C52.2694 38.3576 52.1138 38.327 51.9685 38.2676C51.8233 38.2081 51.6914 38.1209 51.5802 38.011C51.4691 37.901 51.381 37.7705 51.3209 37.6268C51.2607 37.4831 51.2299 37.3292 51.2299 37.1737V33.1296C51.2299 32.8157 51.356 32.5146 51.5804 32.2925C51.8048 32.0705 52.1092 31.9458 52.4266 31.9458C52.7439 31.9458 53.0483 32.0705 53.2727 32.2925C53.4971 32.5146 53.6232 32.8157 53.6232 33.1296V37.1737C53.6233 37.3292 53.5924 37.4831 53.5323 37.6268C53.4722 37.7705 53.384 37.901 53.2729 38.011C53.1618 38.1209 53.0298 38.2081 52.8846 38.2676C52.7394 38.327 52.5838 38.3576 52.4266 38.3575ZM47.2731 38.3575C47.116 38.3576 46.9603 38.327 46.8151 38.2676C46.6699 38.2081 46.5379 38.1209 46.4268 38.011C46.3156 37.901 46.2275 37.7705 46.1674 37.6268C46.1073 37.4831 46.0764 37.3292 46.0765 37.1737V33.1296C46.0765 32.8157 46.2026 32.5146 46.427 32.2925C46.6514 32.0705 46.9558 31.9458 47.2731 31.9458C47.5905 31.9458 47.8949 32.0705 48.1193 32.2925C48.3437 32.5146 48.4697 32.8157 48.4697 33.1296V37.1737C48.4698 37.3292 48.4389 37.4832 48.3788 37.6268C48.3187 37.7705 48.2306 37.9011 48.1194 38.011C48.0083 38.121 47.8763 38.2082 47.7311 38.2676C47.5858 38.3271 47.4303 38.3576 47.2731 38.3575Z" fill="white"/>
</g>
</svg>
