<svg width="22" height="21" viewBox="0 0 22 21" fill="none" xmlns="http://www.w3.org/2000/svg">
<g id="icon-base" clip-path="url(#clip0_4018_7640)">
<path id="Vector" d="M5.31946 20.7858H1.05441V7.05142H5.31946V20.7858ZM3.18436 5.17795C1.82072 5.17795 0.714233 4.04799 0.714233 2.6844C0.714233 2.0293 0.974478 1.40104 1.43772 0.937814C1.90096 0.474591 2.52924 0.214355 3.18436 0.214355C3.83948 0.214355 4.46777 0.474591 4.93101 0.937814C5.39425 1.40104 5.65449 2.0293 5.65449 2.6844C5.65449 4.04799 4.548 5.17795 3.18436 5.17795ZM21.282 20.7858H17.0265V14.1001C17.0265 12.5065 16.9942 10.4633 14.8091 10.4633C12.5917 10.4633 12.2515 12.1943 12.2515 13.9855V20.7858H7.9909V7.05142H12.0811V8.92489H12.1406C12.71 7.84562 14.1008 6.70685 16.1757 6.70685C20.4922 6.70685 21.2857 9.54938 21.2857 13.2412V20.7858H21.282Z" fill="#01518C"/>
</g>
<defs>
<clipPath id="clip0_4018_7640">
<rect width="20.5714" height="20.5714" fill="white" transform="translate(0.714233 0.214355)"/>
</clipPath>
</defs>
</svg>
