<svg width="80" height="80" viewBox="0 0 80 80" fill="none" xmlns="http://www.w3.org/2000/svg">
<g id="icon_banking services">
<g id="Vector">
<path d="M20.0854 13.9853H5.10114C4.49304 13.9853 4 13.4816 4 12.8604C4 7.94269 7.85454 4.00436 12.593 4.00436C14.8996 4.00436 17.0583 4.91891 18.6719 6.57883C20.2924 8.23436 21.1865 10.4386 21.1865 12.7835C21.1865 13.4047 20.6935 13.9853 20.0854 13.9853ZM6.28455 11.7355H18.9031C18.6912 10.3897 18.074 9.14946 17.1121 8.1668C15.912 6.93257 14.3082 6.25421 12.593 6.25421C9.41807 6.25421 6.77651 8.63149 6.28455 11.7355Z" fill="white"/>
<path d="M58.4695 76H27.574C26.9659 76 26.4729 75.4963 26.4729 74.8751C26.4729 74.2538 26.9659 73.7502 27.574 73.7502H58.4695C59.0776 73.7502 59.5706 74.2538 59.5706 74.8751C59.5706 75.4963 59.0776 76 58.4695 76Z" fill="white"/>
<path d="M58.4722 66.6584C57.8641 66.6584 57.371 66.1547 57.371 65.5335V55.1615C57.371 54.5402 57.8641 54.0365 58.4722 54.0365C59.0803 54.0365 59.5733 54.5402 59.5733 55.1615V65.5335C59.5733 66.1547 59.0803 66.6584 58.4722 66.6584Z" fill="white"/>
<path d="M58.4722 22.4151C57.8641 22.4151 57.371 21.9114 57.371 21.2902V10.9297C57.371 8.34919 55.3161 6.24985 52.7901 6.24985H12.5876C11.9795 6.24985 11.4865 5.74616 11.4865 5.12492C11.4865 4.50369 11.9795 4 12.5876 4H52.7901C56.5301 4 59.5733 7.10892 59.5733 10.9297V21.2902C59.5733 21.9114 59.0803 22.4151 58.4722 22.4151Z" fill="white"/>
<path d="M52.7901 16.3181H27.574C26.9659 16.3181 26.4729 15.8144 26.4729 15.1932C26.4729 14.572 26.9659 14.0683 27.574 14.0683H52.7901C53.3982 14.0683 53.8912 14.572 53.8912 15.1932C53.8912 15.8144 53.3982 16.3181 52.7901 16.3181Z" fill="white"/>
<path d="M41.8545 26.3859H27.574C26.9659 26.3859 26.4729 25.8822 26.4729 25.2609C26.4729 24.6397 26.9659 24.136 27.574 24.136H41.8545C42.4626 24.136 42.9556 24.6397 42.9556 25.2609C42.9556 25.8822 42.4626 26.3859 41.8545 26.3859Z" fill="white"/>
<path d="M41.8545 36.4541H27.574C26.9659 36.4541 26.4729 35.9504 26.4729 35.3292C26.4729 34.708 26.9659 34.2043 27.574 34.2043H41.8545C42.4626 34.2043 42.9556 34.708 42.9556 35.3292C42.9556 35.9504 42.4626 36.4541 41.8545 36.4541Z" fill="white"/>
<path d="M41.8545 46.5219H27.574C26.9659 46.5219 26.4729 46.0182 26.4729 45.3969C26.4729 44.7757 26.9659 44.272 27.574 44.272H41.8545C42.4626 44.272 42.9556 44.7757 42.9556 45.3969C42.9556 46.0182 42.4626 46.5219 41.8545 46.5219Z" fill="white"/>
<path d="M52.7901 56.5901H27.574C26.9659 56.5901 26.4729 56.0864 26.4729 55.4652C26.4729 54.844 26.9659 54.3403 27.574 54.3403H52.7901C53.3982 54.3403 53.8912 54.844 53.8912 55.4652C53.8912 56.0864 53.3982 56.5901 52.7901 56.5901Z" fill="white"/>
<path d="M63.7515 75.9967H28.2606C28.1988 75.9967 28.138 75.9918 28.0794 75.9813C27.9111 75.9918 27.7412 75.9967 27.5708 75.9967C26.9627 75.9967 26.4697 75.493 26.4697 74.8718C26.4697 74.2505 26.9627 73.7469 27.5708 73.7469C31.0931 73.7469 33.9588 70.8197 33.9588 67.2214V65.5269C33.9588 64.9057 34.4519 64.402 35.06 64.402H72.8989C73.507 64.402 74 64.9057 74 65.5269C74 71.2998 69.4024 75.9967 63.7515 75.9967ZM33.3083 73.7469H63.7515C67.8147 73.7469 71.1842 70.6539 71.7224 66.6518H36.1611V67.2214C36.1611 69.8096 35.0589 72.1391 33.3083 73.7469Z" fill="white"/>
<path d="M27.5708 75.9967C22.8345 75.9967 18.981 72.06 18.981 67.2214V12.861C18.981 12.2397 19.4741 11.736 20.0822 11.736C20.6903 11.736 21.1833 12.2397 21.1833 12.861V67.2214C21.1833 70.8197 24.0485 73.7469 27.5708 73.7469C28.1789 73.7469 28.6719 74.2505 28.6719 74.8718C28.6719 75.493 28.1789 75.9967 27.5708 75.9967Z" fill="white"/>
<path d="M58.4695 51.7905C51.1497 51.7905 45.195 45.7073 45.195 38.2294C45.195 30.7515 51.1497 24.6677 58.4695 24.6677C65.7893 24.6677 71.7445 30.7515 71.7445 38.2294C71.7445 45.7073 65.7893 51.7905 58.4695 51.7905ZM58.4695 26.9176C52.3643 26.9176 47.3973 31.9918 47.3973 38.2294C47.3973 44.4665 52.3643 49.5407 58.4695 49.5407C64.5752 49.5407 69.5422 44.4665 69.5422 38.2294C69.5422 31.9918 64.5752 26.9176 58.4695 26.9176Z" fill="white"/>
<path d="M58.4641 45.2712C56.2629 45.2712 54.4725 43.4366 54.4725 41.1818C54.4725 40.5605 54.9655 40.0569 55.5736 40.0569C56.1817 40.0569 56.6747 40.5605 56.6747 41.1818C56.6747 42.1963 57.4775 43.0213 58.4641 43.0213C59.4566 43.0213 60.2642 42.1963 60.2642 41.1818C60.2642 40.1738 59.4566 39.3543 58.4641 39.3543C56.2629 39.3543 54.4725 37.5197 54.4725 35.2649C54.4725 33.0167 56.2629 31.1876 58.4641 31.1876C60.6712 31.1876 62.4665 33.0167 62.4665 35.2649C62.4665 35.8862 61.9735 36.3899 61.3653 36.3899C60.7572 36.3899 60.2642 35.8862 60.2642 35.2649C60.2642 34.257 59.4566 33.4375 58.4641 33.4375C57.4775 33.4375 56.6747 34.257 56.6747 35.2649C56.6747 36.2795 57.4775 37.1045 58.4641 37.1045C60.6712 37.1045 62.4665 38.9336 62.4665 41.1818C62.4665 43.4366 60.6712 45.2712 58.4641 45.2712Z" fill="white"/>
<path d="M58.4641 33.4375C57.856 33.4375 57.363 32.9338 57.363 32.3126V30.6252C57.363 30.004 57.856 29.5003 58.4641 29.5003C59.0722 29.5003 59.5652 30.004 59.5652 30.6252V32.3126C59.5652 32.9338 59.0722 33.4375 58.4641 33.4375Z" fill="white"/>
<path d="M58.4641 46.958C57.856 46.958 57.363 46.4543 57.363 45.8331V44.1462C57.363 43.525 57.856 43.0213 58.4641 43.0213C59.0722 43.0213 59.5652 43.525 59.5652 44.1462V45.8331C59.5652 46.4543 59.0722 46.958 58.4641 46.958Z" fill="white"/>
</g>
</g>
</svg>
