<svg width="18" height="18" viewBox="0 0 18 18" fill="none" xmlns="http://www.w3.org/2000/svg">
<g clip-path="url(#clip0_4421_9950)">
<path d="M2.54362 9.92571C2.7067 9.92571 2.8631 9.86069 2.97842 9.74495C3.09374 9.62922 3.15852 9.47224 3.15852 9.30857V2.52H9.9225V6.22286C9.9225 6.38653 9.98728 6.5435 10.1026 6.65924C10.2179 6.77498 10.3743 6.84 10.5374 6.84H14.2268V9.30857C14.2268 9.47224 14.2916 9.62922 14.4069 9.74495C14.5223 9.86069 14.6787 9.92571 14.8418 9.92571C15.0048 9.92571 15.1612 9.86069 15.2766 9.74495C15.3919 9.62922 15.4567 9.47224 15.4567 9.30857V6.22286C15.4579 6.14075 15.4421 6.05928 15.4103 5.98359C15.3786 5.90791 15.3316 5.83966 15.2722 5.78314L10.9755 1.46314C10.8584 1.34853 10.701 1.28479 10.5374 1.28572H3.15852C2.83236 1.28572 2.51955 1.41576 2.28891 1.64723C2.05828 1.8787 1.92871 2.19265 1.92871 2.52V9.30857C1.92871 9.47224 1.9935 9.62922 2.10881 9.74495C2.22413 9.86069 2.38053 9.92571 2.54362 9.92571ZM11.1523 3.39171L13.3583 5.60571H11.1523V3.39171ZM3.77343 11.7771H2.54362C2.38053 11.7771 2.22413 11.8422 2.10881 11.9579C1.9935 12.0736 1.92871 12.2306 1.92871 12.3943V16.0971C1.92871 16.2608 1.9935 16.4178 2.10881 16.5335C2.22413 16.6493 2.38053 16.7143 2.54362 16.7143C2.7067 16.7143 2.8631 16.6493 2.97842 16.5335C3.09374 16.4178 3.15852 16.2608 3.15852 16.0971V15.48H3.77343C4.26268 15.48 4.73189 15.2849 5.07785 14.9377C5.4238 14.5905 5.61815 14.1196 5.61815 13.6286C5.61815 13.1375 5.4238 12.6666 5.07785 12.3194C4.73189 11.9722 4.26268 11.7771 3.77343 11.7771ZM3.77343 14.2457H3.15852V13.0114H3.77343C3.93651 13.0114 4.09292 13.0764 4.20824 13.1922C4.32355 13.3079 4.38834 13.4649 4.38834 13.6286C4.38834 13.7922 4.32355 13.9492 4.20824 14.0649C4.09292 14.1807 3.93651 14.2457 3.77343 14.2457ZM13.9194 13.0114V13.9371H15.1492C15.3123 13.9371 15.4687 14.0022 15.584 14.1179C15.6993 14.2336 15.7641 14.3906 15.7641 14.5543C15.7641 14.718 15.6993 14.8749 15.584 14.9907C15.4687 15.1064 15.3123 15.1714 15.1492 15.1714H13.9194V16.0971C13.9194 16.2608 13.8546 16.4178 13.7393 16.5335C13.624 16.6493 13.4676 16.7143 13.3045 16.7143C13.1414 16.7143 12.985 16.6493 12.8697 16.5335C12.7544 16.4178 12.6896 16.2608 12.6896 16.0971V12.3943C12.6896 12.2306 12.7544 12.0736 12.8697 11.9579C12.985 11.8422 13.1414 11.7771 13.3045 11.7771H15.4567C15.6197 11.7771 15.7761 11.8422 15.8915 11.9579C16.0068 12.0736 16.0716 12.2306 16.0716 12.3943C16.0716 12.558 16.0068 12.7149 15.8915 12.8307C15.7761 12.9464 15.6197 13.0114 15.4567 13.0114H13.9194ZM8.69269 11.7771H7.6166C7.45352 11.7771 7.29711 11.8422 7.18179 11.9579C7.06648 12.0736 7.00169 12.2306 7.00169 12.3943V16.0971C7.00169 16.2608 7.06648 16.4178 7.18179 16.5335C7.29711 16.6493 7.45352 16.7143 7.6166 16.7143H8.69269C9.34502 16.7143 9.97063 16.4542 10.4319 15.9912C10.8932 15.5283 11.1523 14.9004 11.1523 14.2457C11.1523 13.591 10.8932 12.9631 10.4319 12.5002C9.97063 12.0372 9.34502 11.7771 8.69269 11.7771ZM8.69269 15.48H8.23151V13.0114H8.69269C9.01885 13.0114 9.33166 13.1415 9.56229 13.3729C9.79293 13.6044 9.9225 13.9184 9.9225 14.2457C9.9225 14.5731 9.79293 14.887 9.56229 15.1185C9.33166 15.35 9.01885 15.48 8.69269 15.48Z" fill="#1E44C9"/>
</g>
<defs>
<clipPath id="clip0_4421_9950">
<rect width="15.4286" height="15.4286" fill="white" transform="translate(1.28613 1.28571)"/>
</clipPath>
</defs>
</svg>
