<svg width="32" height="32" viewBox="0 0 32 32" fill="none" xmlns="http://www.w3.org/2000/svg">
<g clip-path="url(#clip0_2878_27170)">
<path d="M27.6044 5.33338H17.055V3.30164C17.055 3.03221 16.9438 2.77382 16.746 2.58331C16.5481 2.3928 16.2798 2.28577 16 2.28577C15.7202 2.28577 15.4519 2.3928 15.254 2.58331C15.0562 2.77382 14.9451 3.03221 14.9451 3.30164V5.33338H4.39561C3.83603 5.33338 3.29937 5.54744 2.90369 5.92847C2.50801 6.30949 2.28572 6.82628 2.28572 7.36513V22.6032C2.28572 23.1421 2.50801 23.6588 2.90369 24.0399C3.29937 24.4209 3.83603 24.635 4.39561 24.635H9.59122L6.74286 28.0635C6.61895 28.2125 6.54116 28.3922 6.5184 28.5818C6.49564 28.7715 6.52883 28.9634 6.61417 29.1358C6.69951 29.3081 6.83355 29.4537 7.00091 29.5561C7.16828 29.6584 7.3622 29.7132 7.56045 29.7143C7.71791 29.7153 7.87352 29.6815 8.01527 29.6154C8.15702 29.5494 8.28113 29.4529 8.37803 29.3334L12.2813 24.635H19.7187L23.622 29.3334C23.7189 29.4529 23.843 29.5494 23.9847 29.6154C24.1265 29.6815 24.2821 29.7153 24.4396 29.7143C24.6378 29.7132 24.8317 29.6584 24.9991 29.5561C25.1665 29.4537 25.3005 29.3081 25.3858 29.1358C25.4712 28.9634 25.5044 28.7715 25.4816 28.5818C25.4589 28.3922 25.3811 28.2125 25.2571 28.0635L22.4088 24.635H27.6044C28.164 24.635 28.7006 24.4209 29.0963 24.0399C29.492 23.6588 29.7143 23.1421 29.7143 22.6032V7.36513C29.7143 6.82628 29.492 6.30949 29.0963 5.92847C28.7006 5.54744 28.164 5.33338 27.6044 5.33338V5.33338ZM27.6044 22.6032H4.39561V7.36513H27.6044V22.6032Z" fill="white"/>
</g>
<defs>
<clipPath id="clip0_2878_27170">
<rect width="27.4286" height="27.4286" fill="white" transform="translate(2.28572 2.28577)"/>
</clipPath>
</defs>
</svg>
