<svg width="18" height="18" viewBox="0 0 18 18" fill="none" xmlns="http://www.w3.org/2000/svg">
<g clip-path="url(#clip0_2961_7179)">
<path d="M13.3847 11.4219C12.9751 11.4239 12.5712 11.5148 12.2028 11.6879C11.8343 11.8611 11.5108 12.112 11.256 12.4222L7.25575 10.0036C7.40154 9.54853 7.40154 9.06146 7.25575 8.60641L11.256 6.18781C11.662 6.67403 12.2329 7.00557 12.8675 7.12371C13.502 7.24185 14.1594 7.13897 14.723 6.83328C15.2867 6.52759 15.7202 6.03883 15.947 5.45358C16.1737 4.86833 16.1789 4.22437 15.9616 3.63576C15.7444 3.04716 15.3188 2.55191 14.7601 2.23774C14.2015 1.92357 13.5459 1.81077 12.9095 1.91931C12.2731 2.02784 11.697 2.35072 11.2831 2.83074C10.8693 3.31076 10.6445 3.91694 10.6486 4.5419C10.6512 4.77856 10.688 5.01371 10.758 5.24049L6.75777 7.65908C6.40461 7.22912 5.92189 6.91606 5.37653 6.7633C4.83117 6.61053 4.25017 6.62563 3.71407 6.80649C3.17798 6.98736 2.71334 7.32503 2.38456 7.77271C2.05578 8.22039 1.87915 8.75589 1.87915 9.30499C1.87915 9.8541 2.05578 10.3896 2.38456 10.8373C2.71334 11.285 3.17798 11.6226 3.71407 11.8035C4.25017 11.9844 4.83117 11.9995 5.37653 11.8467C5.92189 11.6939 6.40461 11.3809 6.75777 10.9509L10.758 13.3695C10.688 13.5963 10.6512 13.8314 10.6486 14.0681C10.6486 14.5915 10.8091 15.1031 11.1097 15.5382C11.4104 15.9734 11.8377 16.3125 12.3377 16.5128C12.8376 16.7131 13.3878 16.7655 13.9185 16.6634C14.4493 16.5613 14.9368 16.3093 15.3195 15.9392C15.7022 15.5691 15.9628 15.0976 16.0683 14.5843C16.1739 14.071 16.1197 13.539 15.9126 13.0554C15.7055 12.5719 15.3548 12.1586 14.9049 11.8679C14.4549 11.5771 13.9259 11.4219 13.3847 11.4219ZM13.3847 2.9542C13.7094 2.9542 14.0268 3.04732 14.2968 3.22178C14.5668 3.39624 14.7772 3.6442 14.9015 3.93431C15.0257 4.22443 15.0582 4.54366 14.9949 4.85164C14.9316 5.15963 14.7752 5.44253 14.5456 5.66457C14.316 5.88662 14.0235 6.03783 13.705 6.09909C13.3866 6.16035 13.0565 6.12891 12.7565 6.00874C12.4565 5.88857 12.2001 5.68507 12.0197 5.42398C11.8393 5.16288 11.7431 4.85592 11.7431 4.5419C11.7431 4.12082 11.916 3.71698 12.2239 3.41923C12.5318 3.12148 12.9493 2.9542 13.3847 2.9542ZM4.62904 10.8927C4.30434 10.8927 3.98694 10.7996 3.71696 10.6251C3.44698 10.4507 3.23656 10.2027 3.11231 9.91258C2.98805 9.62247 2.95554 9.30323 3.01889 8.99525C3.08223 8.68727 3.23859 8.40437 3.46818 8.18232C3.69778 7.96028 3.9903 7.80906 4.30876 7.7478C4.62722 7.68654 4.95731 7.71798 5.25729 7.83815C5.55727 7.95832 5.81367 8.16182 5.99406 8.42292C6.17445 8.68401 6.27073 8.99098 6.27073 9.30499C6.27073 9.72608 6.09777 10.1299 5.78989 10.4277C5.48201 10.7254 5.06444 10.8927 4.62904 10.8927ZM13.3847 15.6558C13.0601 15.6558 12.7426 15.5627 12.4727 15.3882C12.2027 15.2138 11.9923 14.9658 11.868 14.6757C11.7438 14.3856 11.7113 14.0663 11.7746 13.7583C11.8379 13.4504 11.9943 13.1675 12.2239 12.9454C12.4535 12.7234 12.746 12.5722 13.0645 12.5109C13.3829 12.4496 13.713 12.4811 14.013 12.6012C14.313 12.7214 14.5694 12.9249 14.7498 13.186C14.9302 13.4471 15.0264 13.7541 15.0264 14.0681C15.0264 14.4892 14.8535 14.893 14.5456 15.1908C14.2377 15.4885 13.8202 15.6558 13.3847 15.6558Z" fill="#575757"/>
</g>
<defs>
<clipPath id="clip0_2961_7179">
<rect width="15.4286" height="15.4286" fill="white" transform="translate(1.28564 1.28571)"/>
</clipPath>
</defs>
</svg>
