<svg width="24" height="24" viewBox="0 0 24 24" fill="none" xmlns="http://www.w3.org/2000/svg">
<g clip-path="url(#clip0_2999_6710)">
<rect x="1.19922" y="4.20001" width="21.6" height="16.2" rx="4" fill="white"/>
<path d="M6.10832 20.4V12.0568L3.52012 9.68963L1.19922 8.37602V18.9277C1.19922 19.7423 1.85945 20.4 2.67198 20.4H6.10832Z" fill="#4285F4"/>
<path d="M17.8901 20.4H21.3265C22.1414 20.4 22.7992 19.7399 22.7992 18.9277V8.3761L20.1704 9.88068L17.8901 12.0568V20.4Z" fill="#34A853"/>
<path d="M6.10832 12.0568L5.75614 8.79685L6.10832 5.67676L11.9992 10.0938L17.8901 5.67676L18.2841 8.6284L17.8901 12.0568L11.9992 16.4738L6.10832 12.0568Z" fill="#EA4335"/>
<path d="M17.8901 5.67676V12.0568L22.7992 8.3761V6.4129C22.7992 4.59217 20.7202 3.55422 19.2647 4.64615L17.8901 5.67676Z" fill="#FBBC04"/>
<path d="M1.19922 8.37602L6.10832 12.0568V5.67676L4.73369 4.64591C3.27569 3.55389 1.19922 4.59192 1.19922 6.41257V8.37602Z" fill="#C5221F"/>
</g>
<defs>
<clipPath id="clip0_2999_6710">
<rect width="21.6" height="21.6" fill="white" transform="translate(1.19922 1.20001)"/>
</clipPath>
</defs>
</svg>
