<svg width="24" height="24" viewBox="0 0 24 24" fill="none" xmlns="http://www.w3.org/2000/svg">
<g clip-path="url(#clip0_2986_3081)">
<path d="M10.4117 8.69502C10.3144 8.64155 10.2026 8.61196 10.0879 8.60931C9.97317 8.60666 9.85974 8.63106 9.75937 8.67996C9.659 8.72887 9.57536 8.8005 9.51711 8.88742C9.45887 8.97434 9.42815 9.07338 9.42815 9.17427V14.9953C9.42814 15.0974 9.45961 15.1977 9.51922 15.2854C9.57884 15.373 9.66436 15.4449 9.76671 15.4932C9.86906 15.5416 9.9844 15.5646 10.1005 15.5599C10.2165 15.5553 10.329 15.523 10.4259 15.4666L15.5687 12.4725C15.6583 12.4203 15.7315 12.3492 15.7818 12.2658C15.832 12.1823 15.8577 12.0891 15.8564 11.9947C15.8551 11.9002 15.8269 11.8076 15.7744 11.7252C15.7219 11.6428 15.6468 11.5733 15.5559 11.523L10.413 8.69502H10.4117Z" fill="#717171"/>
<path d="M4.92815 4.08789C4.07567 4.08789 3.25811 4.3856 2.65531 4.91553C2.05251 5.44546 1.71387 6.1642 1.71387 6.91364V17.0863C1.71387 17.8358 2.05251 18.5545 2.65531 19.0844C3.25811 19.6144 4.07567 19.9121 4.92815 19.9121H19.071C19.9235 19.9121 20.7411 19.6144 21.3439 19.0844C21.9466 18.5545 22.2853 17.8358 22.2853 17.0863V6.91364C22.2853 6.1642 21.9466 5.44546 21.3439 4.91553C20.7411 4.3856 19.9235 4.08789 19.071 4.08789H4.92815ZM2.99958 6.91364C2.99958 6.46398 3.20277 6.03273 3.56445 5.71477C3.92612 5.39682 4.41666 5.21819 4.92815 5.21819H19.071C19.5825 5.21819 20.073 5.39682 20.4347 5.71477C20.7964 6.03273 20.9996 6.46398 20.9996 6.91364V17.0863C20.9996 17.536 20.7964 17.9672 20.4347 18.2852C20.073 18.6031 19.5825 18.7818 19.071 18.7818H4.92815C4.41666 18.7818 3.92612 18.6031 3.56445 18.2852C3.20277 17.9672 2.99958 17.536 2.99958 17.0863V6.91364Z" fill="#717171"/>
</g>
<defs>
<clipPath id="clip0_2986_3081">
<rect width="20.5714" height="20.5714" fill="white" transform="translate(1.71387 1.71429)"/>
</clipPath>
</defs>
</svg>
