<svg width="12" height="12" viewBox="0 0 12 12" fill="none" xmlns="http://www.w3.org/2000/svg">
<g clip-path="url(#clip0_2500_15630)">
<path fill-rule="evenodd" clip-rule="evenodd" d="M1.10813 1.11882C1.26871 0.958134 1.48647 0.867863 1.71352 0.867863C1.94058 0.867863 2.15833 0.958134 2.31891 1.11882L5.99493 4.79854L9.67094 1.11882C9.74993 1.03696 9.84442 0.971658 9.94889 0.926736C10.0534 0.881814 10.1657 0.858169 10.2794 0.85718C10.3931 0.856191 10.5059 0.877878 10.6111 0.920975C10.7163 0.964073 10.8119 1.02772 10.8923 1.1082C10.9727 1.18868 11.0363 1.28438 11.0794 1.38972C11.1224 1.49506 11.1441 1.60793 11.1431 1.72174C11.1421 1.83555 11.1185 1.94802 11.0736 2.0526C11.0287 2.15717 10.9635 2.25175 10.8817 2.33082L7.20571 6.01054L10.8817 9.69025C11.0377 9.85191 11.124 10.0684 11.1221 10.2932C11.1201 10.5179 11.0301 10.7329 10.8713 10.8918C10.7125 11.0507 10.4978 11.1409 10.2732 11.1428C10.0487 11.1448 9.83244 11.0584 9.67094 10.9023L5.99493 7.22254L2.31891 10.9023C2.15741 11.0584 1.94112 11.1448 1.7166 11.1428C1.49209 11.1409 1.27732 11.0507 1.11856 10.8918C0.959799 10.7329 0.869744 10.5179 0.867793 10.2932C0.865842 10.0684 0.952151 9.85191 1.10813 9.69025L4.78414 6.01054L1.10813 2.33082C0.947602 2.17008 0.857422 1.95211 0.857422 1.72482C0.857422 1.49754 0.947602 1.27956 1.10813 1.11882Z" fill="#373737"/>
</g>
<defs>
<clipPath id="clip0_2500_15630">
<rect width="10.2857" height="10.2857" fill="white" transform="translate(0.857422 0.857147)"/>
</clipPath>
</defs>
</svg>
