<svg width="20" height="20" viewBox="0 0 20 20" fill="none" xmlns="http://www.w3.org/2000/svg">
<g clip-path="url(#clip0_2934_3296)">
<path d="M16.2856 4.43221H15.1428V2.08789H4.85704V4.43221H3.71418C3.10797 4.43221 2.52659 4.6792 2.09794 5.11885C1.66928 5.55849 1.42847 6.15478 1.42847 6.77653V13.2234H3.66847V12.104H2.57132V6.77653C2.57132 6.46566 2.69173 6.16751 2.90606 5.94769C3.12039 5.72787 3.41108 5.60437 3.71418 5.60437H16.2856C16.5887 5.60437 16.8794 5.72787 17.0937 5.94769C17.3081 6.16751 17.4285 6.46566 17.4285 6.77653V12.0513H16.3313V13.2234H18.5713V6.77653C18.5713 6.15478 18.3305 5.55849 17.9019 5.11885C17.4732 4.6792 16.8918 4.43221 16.2856 4.43221ZM13.9999 4.43221H5.9999V3.26005H13.9999V4.43221Z" fill="#666666"/>
<path d="M15.7142 9.70694H4.28561C4.13406 9.70694 3.98872 9.76869 3.88155 9.8786C3.77439 9.98851 3.71419 10.1376 3.71419 10.293C3.71419 10.4485 3.77439 10.5975 3.88155 10.7074C3.98872 10.8174 4.13406 10.8791 4.28561 10.8791H4.85704V17.9121H15.1428V10.8791H15.7142C15.8657 10.8791 16.0111 10.8174 16.1182 10.7074C16.2254 10.5975 16.2856 10.4485 16.2856 10.293C16.2856 10.1376 16.2254 9.98851 16.1182 9.8786C16.0111 9.76869 15.8657 9.70694 15.7142 9.70694ZM13.9999 16.7399H5.9999V10.8791H13.9999V16.7399Z" fill="#666666"/>
<path d="M15.1428 6.79997H16.2856V7.97213H15.1428V6.79997Z" fill="#666666"/>
</g>
<defs>
<clipPath id="clip0_2934_3296">
<rect width="17.1429" height="17.1429" fill="white" transform="translate(1.42847 1.42859)"/>
</clipPath>
</defs>
</svg>
