<svg width="24" height="24" viewBox="0 0 24 24" fill="none" xmlns="http://www.w3.org/2000/svg">
<path d="M6.40493 10.3673L4.06812 12.7044C3.10979 13.6628 2.57141 14.9627 2.57141 16.318C2.57141 17.6734 3.10979 18.9733 4.06812 19.9317C5.02644 20.8902 6.32621 21.4286 7.68148 21.4286C9.03676 21.4286 10.3365 20.8902 11.2949 19.9317L14.4083 16.8163C14.9862 16.2383 15.417 15.53 15.6646 14.751C15.9122 13.972 15.9693 13.145 15.8311 12.3394C15.693 11.5338 15.3636 10.773 14.8706 10.121C14.3777 9.46905 13.7355 8.94485 12.9981 8.59243L12 9.5906C11.8987 9.69212 11.8105 9.80601 11.7377 9.92957C12.3075 10.0934 12.8246 10.4031 13.238 10.828C13.6515 11.253 13.9468 11.7785 14.0949 12.3526C14.243 12.9267 14.2388 13.5295 14.0826 14.1014C13.9263 14.6734 13.6235 15.1947 13.2042 15.6137L10.0924 18.7275C9.4532 19.3667 8.58628 19.7258 7.68234 19.7258C6.77839 19.7258 5.91147 19.3667 5.27229 18.7275C4.6331 18.0882 4.27401 17.2212 4.27401 16.3172C4.27401 15.4132 4.6331 14.5462 5.27229 13.9069L6.62294 12.5579C6.43237 11.8437 6.35875 11.1051 6.40493 10.3673Z" fill="#FA4616"/>
<path d="M9.59164 7.18204C9.01375 7.76006 8.58294 8.4683 8.33536 9.24729C8.08779 10.0263 8.03069 10.8533 8.16884 11.6589C8.30699 12.4646 8.63638 13.2253 9.12934 13.8773C9.6223 14.5293 10.2645 15.0535 11.0019 15.4059L12.3219 14.0841C11.7444 13.9292 11.2179 13.625 10.7952 13.2021C10.3725 12.7792 10.0686 12.2525 9.91391 11.6749C9.75925 11.0973 9.75933 10.4892 9.91413 9.91159C10.0689 9.33404 10.373 8.80741 10.7958 8.38462L13.9076 5.27086C14.5468 4.63162 15.4137 4.2725 16.3176 4.2725C17.2216 4.2725 18.0885 4.63162 18.7277 5.27086C19.3669 5.9101 19.726 6.7771 19.726 7.68113C19.726 8.58515 19.3669 9.45215 18.7277 10.0914L17.377 11.4405C17.5678 12.1559 17.641 12.8968 17.595 13.6327L19.9318 11.2957C20.8902 10.3373 21.4286 9.03737 21.4286 7.68198C21.4286 6.32658 20.8902 5.02669 19.9318 4.06828C18.9735 3.10987 17.6738 2.57144 16.3185 2.57144C14.9632 2.57144 13.6634 3.10987 12.7051 4.06828L9.59164 7.18204Z" fill="#FA4616"/>
</svg>
