<svg width="16" height="16" viewBox="0 0 16 16" fill="none" xmlns="http://www.w3.org/2000/svg">
<g clip-path="url(#clip0_10_16137)">
<path d="M7.8847 10.9026C7.89842 10.9213 7.91595 10.9363 7.93596 10.9467C7.95598 10.957 7.97795 10.9624 8.00021 10.9624C8.02247 10.9624 8.04444 10.957 8.06445 10.9467C8.08447 10.9363 8.102 10.9213 8.11572 10.9026L10.1692 8.14223C10.2444 8.04093 10.1765 7.89093 10.0537 7.89093H8.69509V1.29873C8.69509 1.21301 8.62909 1.14288 8.54841 1.14288H7.44834C7.36766 1.14288 7.30166 1.21301 7.30166 1.29873V7.88899H5.94673C5.82389 7.88899 5.75605 8.03899 5.83123 8.14029L7.8847 10.9026ZM14.7107 10.2208H13.6106C13.5299 10.2208 13.4639 10.2909 13.4639 10.3766V13.3766H2.5365V10.3766C2.5365 10.2909 2.47049 10.2208 2.38982 10.2208H1.28974C1.20907 10.2208 1.14307 10.2909 1.14307 10.3766V14.2338C1.14307 14.5786 1.40525 14.8572 1.72977 14.8572H14.2706C14.5952 14.8572 14.8574 14.5786 14.8574 14.2338V10.3766C14.8574 10.2909 14.7913 10.2208 14.7107 10.2208Z" fill="#FA4616"/>
</g>
<defs>
<clipPath id="clip0_10_16137">
<rect width="13.7143" height="13.7143" fill="white" transform="translate(1.14307 1.14288)"/>
</clipPath>
</defs>
</svg>
