<svg width="22" height="22" viewBox="0 0 22 22" fill="none" xmlns="http://www.w3.org/2000/svg">
<path fill-rule="evenodd" clip-rule="evenodd" d="M1.21626 1.23758C1.53741 0.916206 1.97293 0.735665 2.42704 0.735665C2.88115 0.735665 3.31667 0.916206 3.63782 1.23758L10.9899 8.59701L18.3419 1.23758C18.4999 1.07385 18.6888 0.943255 18.8978 0.853411C19.1067 0.763567 19.3314 0.716276 19.5588 0.714298C19.7862 0.71232 20.0117 0.755694 20.2222 0.84189C20.4327 0.928086 20.6239 1.05538 20.7847 1.21634C20.9455 1.37729 21.0726 1.5687 21.1587 1.77938C21.2449 1.99006 21.2882 2.21579 21.2862 2.44342C21.2842 2.67104 21.237 2.89599 21.1472 3.10513C21.0575 3.31428 20.927 3.50345 20.7634 3.66158L13.4114 11.021L20.7634 18.3804C21.0754 18.7038 21.248 19.1368 21.2441 19.5863C21.2402 20.0358 21.0601 20.4657 20.7426 20.7836C20.4251 21.1014 19.9955 21.2817 19.5465 21.2856C19.0975 21.2895 18.6649 21.1167 18.3419 20.8044L10.9899 13.445L3.63782 20.8044C3.31483 21.1167 2.88223 21.2895 2.4332 21.2856C1.98417 21.2817 1.55464 21.1014 1.23712 20.7836C0.919597 20.4657 0.739488 20.0358 0.735587 19.5863C0.731685 19.1368 0.904302 18.7038 1.21626 18.3804L8.56829 11.021L1.21626 3.66158C0.895203 3.34011 0.714844 2.90415 0.714844 2.44958C0.714844 1.99502 0.895203 1.55906 1.21626 1.23758Z" fill="white"/>
</svg>
