<svg width="33" height="33" viewBox="0 0 33 33" fill="none" xmlns="http://www.w3.org/2000/svg">
<g clip-path="url(#clip0_2914_17457)">
<path d="M23.4144 9.44739C21.8895 6.89951 19.7246 4.78206 17.1285 3.2992L16.6667 3.03577L16.2048 3.2992C13.5645 4.80184 11.3721 6.96371 9.84821 9.56731C8.32429 12.1709 7.5226 15.1244 7.52381 18.1306C7.52381 18.3264 7.52726 18.5253 7.53401 18.7218C7.62578 21.3855 8.65876 23.6269 10.5213 25.2036C11.9466 26.4102 13.7748 27.1468 15.7445 27.3225V30.4643H17.5892V15.9111H15.7443V25.4917C12.6277 25.1356 9.52572 22.9645 9.37751 18.6599C9.3714 18.484 9.36829 18.3059 9.36829 18.1306C9.37378 15.5348 10.046 12.9828 11.3223 10.7126C12.5985 8.44233 14.4372 6.52796 16.6667 5.14809C18.8961 6.52799 20.7347 8.44237 22.0109 10.7126C23.2871 12.9828 23.9593 15.5348 23.9648 18.1306C23.9648 18.3059 23.9617 18.484 23.9556 18.66C23.8371 22.1035 21.828 24.1815 19.4335 25.0575V26.9828C20.676 26.6355 21.8283 26.0287 22.812 25.2034C24.6746 23.6268 25.7075 21.3854 25.7993 18.7217C25.8061 18.5253 25.8095 18.3264 25.8095 18.1305C25.8112 15.0772 24.9842 12.0791 23.4144 9.44739V9.44739Z" fill="black"/>
</g>
<defs>
<clipPath id="clip0_2914_17457">
<rect width="27.4286" height="27.4286" fill="white" transform="translate(2.95239 3.03577)"/>
</clipPath>
</defs>
</svg>
