<svg width="24" height="24" viewBox="0 0 24 24" fill="none" xmlns="http://www.w3.org/2000/svg">
<g clip-path="url(#clip0_1782_7092)">
<path d="M11.9957 1.71436C6.32652 1.71436 1.71423 6.3275 1.71423 11.9966C1.71423 17.6709 6.32652 22.2858 11.9957 22.2858C17.6699 22.2858 22.2857 17.6701 22.2857 11.9966C22.2857 6.3275 17.6699 1.71436 11.9957 1.71436ZM6.77823 15.7749C7.95545 15.4143 9.17959 15.23 10.4108 15.2281C12.4799 15.2281 14.5225 15.7526 16.3182 16.7452C16.4254 16.8035 16.5222 16.9955 16.5668 17.2355C16.6097 17.4755 16.5925 17.7215 16.5222 17.8492C16.4891 17.91 16.4443 17.9635 16.3903 18.0068C16.3363 18.0501 16.2743 18.0822 16.2078 18.1014C16.1413 18.1205 16.0716 18.1263 16.0029 18.1183C15.9342 18.1103 15.8677 18.0888 15.8074 18.0549C14.4884 17.3314 13.0375 16.8801 11.5409 16.7278C10.0442 16.5756 8.53217 16.7255 7.09452 17.1686C7.02852 17.19 6.95894 17.198 6.88982 17.1922C6.8207 17.1863 6.75343 17.1668 6.69192 17.1348C6.63042 17.1027 6.57591 17.0587 6.53157 17.0054C6.48723 16.952 6.45395 16.8904 6.43366 16.8241C6.34195 16.5241 6.53138 15.8555 6.77823 15.7749ZM6.32995 11.9864C7.65985 11.6251 9.03185 11.442 10.4099 11.4421C12.8905 11.4421 15.3531 12.0421 17.5328 13.1786C17.6862 13.2558 17.7985 13.3878 17.8499 13.5489C17.8759 13.6303 17.8854 13.7161 17.8777 13.8011C17.8701 13.8862 17.8455 13.9689 17.8054 14.0444C17.6108 14.4249 17.3828 14.6812 17.2397 14.6812C17.1352 14.6808 17.0324 14.6555 16.9397 14.6075C14.9247 13.5555 12.6838 13.0101 10.4108 13.0184C9.14646 13.0158 7.8876 13.1845 6.66852 13.5198C6.58719 13.542 6.50229 13.548 6.41864 13.5374C6.335 13.5268 6.25426 13.4999 6.18103 13.4581C6.10781 13.4163 6.04353 13.3605 5.99187 13.2939C5.94021 13.2273 5.90218 13.1511 5.87995 13.0698C5.78395 12.7081 6.00423 12.0755 6.32995 11.9864ZM6.21423 9.51264C6.11776 9.5374 6.01733 9.54281 5.91875 9.52855C5.82017 9.5143 5.7254 9.48066 5.63989 9.42957C5.55438 9.37849 5.47984 9.31098 5.42056 9.23094C5.36128 9.15089 5.31844 9.0599 5.29452 8.96321C5.18909 8.53636 5.45566 8.04093 5.84309 7.94321C7.33753 7.57513 8.87085 7.38835 10.4099 7.38693C13.3671 7.38693 16.2008 8.05207 18.8305 9.36436C19.0112 9.4542 19.1488 9.61211 19.2131 9.80338C19.2774 9.99465 19.2631 10.2036 19.1734 10.3844C19.0508 10.6312 18.7851 10.8969 18.4919 10.8969C18.377 10.8965 18.2635 10.8711 18.1594 10.8224C15.7547 9.61604 13.1002 8.99183 10.4099 9.00007C9.00852 9.00007 7.59681 9.17236 6.21423 9.51264Z" fill="white"/>
</g>
<defs>
<clipPath id="clip0_1782_7092">
<rect width="20.5714" height="20.5714" fill="white" transform="translate(1.71423 1.71436)"/>
</clipPath>
</defs>
</svg>
