<svg width="20" height="20" viewBox="0 0 20 20" fill="none" xmlns="http://www.w3.org/2000/svg">
<path d="M14.2956 17.8571C14.1426 17.8567 13.9902 17.8395 13.8408 17.806C10.9967 17.2043 8.37663 15.7937 6.28199 13.7364C4.23205 11.6745 2.81031 9.04936 2.18878 6.17849C2.11549 5.8207 2.13348 5.44964 2.24101 5.10101C2.34854 4.75238 2.54199 4.43791 2.80276 4.18787L4.62196 2.39724C4.71488 2.30738 4.82529 2.23856 4.94597 2.19528C5.06666 2.15201 5.19491 2.13524 5.32236 2.14608C5.45451 2.16018 5.58203 2.20372 5.69596 2.27362C5.80989 2.34353 5.90747 2.43811 5.98182 2.55072L8.25582 5.9878C8.3411 6.12117 8.38227 6.279 8.37326 6.43808C8.36425 6.59716 8.30555 6.74908 8.2058 6.87149L7.06425 8.26679C7.51889 9.2958 8.16275 10.2258 8.96077 11.0062C9.75362 11.8149 10.6908 12.4607 11.7214 12.9085L13.1358 11.7597C13.2546 11.6637 13.3992 11.6069 13.5503 11.5969C13.7014 11.587 13.8519 11.6243 13.9818 11.7039L17.4155 13.9736C17.5334 14.0455 17.6337 14.1438 17.7092 14.261C17.7846 14.3783 17.8331 14.5115 17.851 14.6506C17.869 14.7898 17.8559 14.9313 17.8127 15.0645C17.7696 15.1978 17.6976 15.3193 17.602 15.42L15.8283 17.2153C15.6268 17.4203 15.3876 17.5826 15.1246 17.6927C14.8616 17.8029 14.5798 17.8588 14.2956 17.8571ZM5.24959 3.06698L3.43038 4.85761C3.28369 4.9974 3.1751 5.17382 3.11529 5.36954C3.05548 5.56525 3.04652 5.77352 3.08928 5.97385C3.66721 8.66777 4.99568 11.1329 6.91416 13.0713C8.88536 15.0068 11.351 16.3336 14.0273 16.899C14.2298 16.9423 14.4397 16.9336 14.6382 16.8735C14.8366 16.8134 15.0174 16.7039 15.1643 16.5549L16.938 14.7596L13.6225 12.569L12.1034 13.8061C12.0453 13.8532 11.9768 13.885 11.9038 13.8988C11.8309 13.9126 11.7558 13.9079 11.685 13.8852C10.4237 13.4099 9.2807 12.6556 8.33769 11.676C7.3623 10.7445 6.60518 9.59977 6.12281 8.32725C6.1024 8.25022 6.10172 8.1691 6.12084 8.09172C6.13995 8.01434 6.17822 7.94329 6.23196 7.88541L7.45992 6.38314L5.24959 3.06698Z" fill="#FA4616"/>
</svg>
