<svg width="24" height="24" viewBox="0 0 24 24" fill="none" xmlns="http://www.w3.org/2000/svg">
<g clip-path="url(#clip0_2542_8065)">
<path fill-rule="evenodd" clip-rule="evenodd" d="M13.0693 3.29552C14.0817 2.28304 15.455 1.71423 16.8868 1.71423C18.3187 1.71423 19.6919 2.28304 20.7044 3.29552C21.7169 4.308 22.2857 5.68121 22.2857 7.11308C22.2857 8.54494 21.7169 9.91815 20.7044 10.9306L17.4457 14.1883C16.4332 15.2003 15.0603 15.7689 13.6287 15.7689C12.1972 15.7689 10.8243 15.2003 9.81181 14.1883C9.50276 13.8794 9.50266 13.3784 9.81158 13.0694C10.1205 12.7603 10.6215 12.7602 10.9305 13.0691C11.6462 13.7846 12.6168 14.1864 13.6287 14.1864C14.6407 14.1864 15.6112 13.7846 16.3269 13.0692C16.3269 13.0692 16.3269 13.0692 16.3269 13.0692L19.5854 9.8117C20.3012 9.09598 20.7032 8.12525 20.7032 7.11308C20.7032 6.1009 20.3012 5.13017 19.5854 4.41446C18.8697 3.69874 17.899 3.29665 16.8868 3.29665C15.8746 3.29665 14.9039 3.69874 14.1882 4.41446L12.5594 6.04324C12.2504 6.35222 11.7495 6.35222 11.4405 6.04324C11.1315 5.73425 11.1315 5.23329 11.4405 4.9243L13.0693 3.29552ZM6.55425 9.81158C7.56671 8.79955 8.93964 8.23103 10.3712 8.23103C11.8027 8.23103 13.1756 8.79955 14.1881 9.81158C14.4971 10.1205 14.4972 10.6215 14.1883 10.9305C13.8794 11.2396 13.3784 11.2397 13.0694 10.9308C12.3537 10.2153 11.3831 9.81345 10.3712 9.81345C9.35922 9.81345 8.38869 10.2153 7.67298 10.9307C7.67297 10.9307 7.67299 10.9307 7.67298 10.9307L4.41446 14.1882C4.41443 14.1882 4.41449 14.1882 4.41446 14.1882C3.69879 14.9039 3.29665 15.8747 3.29665 16.8868C3.29665 17.899 3.69874 18.8697 4.41446 19.5854C5.13017 20.3012 6.1009 20.7032 7.11308 20.7032C8.12526 20.7032 9.09598 20.3012 9.8117 19.5854L11.4405 17.9567C11.7495 17.6477 12.2504 17.6477 12.5594 17.9567C12.8684 18.2656 12.8684 18.7666 12.5594 19.0756L10.9306 20.7044C9.91816 21.7169 8.54494 22.2857 7.11308 22.2857C5.68121 22.2857 4.308 21.7169 3.29552 20.7044C2.28304 19.6919 1.71423 18.3187 1.71423 16.8868C1.71423 15.455 2.28304 14.0817 3.29552 13.0693L6.55425 9.81158Z" fill="#07B2FD"/>
</g>
<defs>
<clipPath id="clip0_2542_8065">
<rect width="20.5714" height="20.5714" fill="white" transform="translate(1.71423 1.71423)"/>
</clipPath>
</defs>
</svg>
