<svg width="32" height="33" viewBox="0 0 32 33" fill="none" xmlns="http://www.w3.org/2000/svg">
<g clip-path="url(#clip0_2914_3854)">
<path d="M28.3428 6.87859H23.3143V3.67859H21.4857V6.87859H10.5143V3.67859H8.68571V6.87859H3.65713C3.29354 6.87901 2.94496 7.02364 2.68786 7.28074C2.43075 7.53784 2.28613 7.88642 2.28571 8.25002V27.45C2.28613 27.8136 2.43075 28.1622 2.68786 28.4193C2.94496 28.6764 3.29354 28.821 3.65713 28.8214H28.3428C28.7064 28.821 29.055 28.6764 29.3121 28.4193C29.5692 28.1622 29.7139 27.8136 29.7143 27.45V8.25002C29.7139 7.88642 29.5692 7.53784 29.3121 7.28074C29.055 7.02364 28.7064 6.87901 28.3428 6.87859ZM27.8857 26.9929H4.11428V8.70716H8.68571V10.9929H10.5143V8.70716H21.4857V10.9929H23.3143V8.70716H27.8857V26.9929Z" fill="black"/>
<path d="M7.77142 14.1929H9.59999V16.0214H7.77142V14.1929Z" fill="black"/>
<path d="M12.8 14.1929H14.6286V16.0214H12.8V14.1929Z" fill="black"/>
<path d="M17.3714 14.1929H19.2V16.0214H17.3714V14.1929Z" fill="black"/>
<path d="M22.4 14.1929H24.2286V16.0214H22.4V14.1929Z" fill="black"/>
<path d="M7.77142 18.3072H9.59999V20.1357H7.77142V18.3072Z" fill="black"/>
<path d="M12.8 18.3072H14.6286V20.1357H12.8V18.3072Z" fill="black"/>
<path d="M17.3714 18.3072H19.2V20.1357H17.3714V18.3072Z" fill="black"/>
<path d="M22.4 18.3072H24.2286V20.1357H22.4V18.3072Z" fill="black"/>
<path d="M7.77142 22.4214H9.59999V24.25H7.77142V22.4214Z" fill="black"/>
<path d="M12.8 22.4214H14.6286V24.25H12.8V22.4214Z" fill="black"/>
<path d="M17.3714 22.4214H19.2V24.25H17.3714V22.4214Z" fill="black"/>
<path d="M22.4 22.4214H24.2286V24.25H22.4V22.4214Z" fill="black"/>
</g>
<defs>
<clipPath id="clip0_2914_3854">
<rect width="27.4286" height="27.4286" fill="white" transform="translate(2.28571 2.53577)"/>
</clipPath>
</defs>
</svg>
