<svg width="20" height="21" viewBox="0 0 20 21" fill="none" xmlns="http://www.w3.org/2000/svg">
<g clip-path="url(#clip0_2900_28096)">
<path d="M1.42871 10.5C1.42871 10.2158 1.54159 9.9433 1.74252 9.74237C1.94346 9.54144 2.21598 9.42855 2.50014 9.42855L8.92871 9.42855L8.92871 2.99998C8.92871 2.71582 9.04159 2.4433 9.24252 2.24237C9.44346 2.04144 9.71598 1.92855 10.0001 1.92855C10.2843 1.92855 10.5568 2.04144 10.7578 2.24237C10.9587 2.4433 11.0716 2.71582 11.0716 2.99998L11.0716 9.42855L17.5001 9.42855C17.7843 9.42855 18.0568 9.54144 18.2578 9.74237C18.4587 9.9433 18.5716 10.2158 18.5716 10.5C18.5716 10.7841 18.4587 11.0567 18.2578 11.2576C18.0568 11.4585 17.7843 11.5714 17.5001 11.5714L11.0716 11.5714L11.0716 18C11.0716 18.2841 10.9587 18.5567 10.7578 18.7576C10.5568 18.9585 10.2843 19.0714 10.0001 19.0714C9.71598 19.0714 9.44346 18.9585 9.24253 18.7576C9.04159 18.5567 8.92871 18.2841 8.92871 18L8.92871 11.5714L2.50014 11.5714C2.21598 11.5714 1.94346 11.4585 1.74252 11.2576C1.54159 11.0567 1.42871 10.7841 1.42871 10.5V10.5Z" fill="#1A1A1A"/>
</g>
<defs>
<clipPath id="clip0_2900_28096">
<rect width="17.1429" height="17.1429" fill="white" transform="translate(1.42871 19.0714) rotate(-90)"/>
</clipPath>
</defs>
</svg>
