<svg width="24" height="24" viewBox="0 0 24 24" fill="none" xmlns="http://www.w3.org/2000/svg">
<g clip-path="url(#clip0_2999_3117)">
<path d="M21.4634 3.56566H17.1434V1.91995C17.1434 1.8068 17.0508 1.71423 16.9377 1.71423H15.4977C15.3846 1.71423 15.292 1.8068 15.292 1.91995V3.56566H8.70913V1.91995C8.70913 1.8068 8.61656 1.71423 8.50342 1.71423H7.06342C6.95027 1.71423 6.8577 1.8068 6.8577 1.91995V3.56566H2.5377C2.08256 3.56566 1.71484 3.93338 1.71484 4.38852V21.4628C1.71484 21.9179 2.08256 22.2857 2.5377 22.2857H21.4634C21.9186 22.2857 22.2863 21.9179 22.2863 21.4628V4.38852C22.2863 3.93338 21.9186 3.56566 21.4634 3.56566ZM20.4348 20.4342H3.56627V10.6628H20.4348V20.4342ZM3.56627 8.91423V5.41709H6.8577V6.65138C6.8577 6.76452 6.95027 6.85709 7.06342 6.85709H8.50342C8.61656 6.85709 8.70913 6.76452 8.70913 6.65138V5.41709H15.292V6.65138C15.292 6.76452 15.3846 6.85709 15.4977 6.85709H16.9377C17.0508 6.85709 17.1434 6.76452 17.1434 6.65138V5.41709H20.4348V8.91423H3.56627Z" fill="#C62B0D"/>
</g>
<defs>
<clipPath id="clip0_2999_3117">
<rect width="20.5714" height="20.5714" fill="white" transform="translate(1.71484 1.71423)"/>
</clipPath>
</defs>
</svg>
