<svg width="20" height="20" viewBox="0 0 20 20" fill="none" xmlns="http://www.w3.org/2000/svg">
<g clip-path="url(#clip0_2147_13055)">
<path d="M18.5725 7.28021C18.5722 7.03984 18.4637 6.8094 18.2709 6.63944C18.078 6.46948 17.8166 6.37388 17.5439 6.37362H14.4583V3.65384C14.458 3.41348 14.3495 3.18304 14.1567 3.01307C13.9638 2.84311 13.7024 2.74751 13.4297 2.74725H2.45826C2.18556 2.74751 1.92411 2.84311 1.73127 3.01307C1.53844 3.18304 1.42998 3.41348 1.42969 3.65384V13.3241C1.42968 13.3812 1.448 13.4371 1.48253 13.4854C1.51706 13.5336 1.56639 13.5723 1.62481 13.5969C1.68323 13.6215 1.74835 13.631 1.81264 13.6243C1.87694 13.6176 1.93777 13.5951 1.98812 13.5592L5.28657 11.2088H5.54389L5.54397 13.9286C5.54427 14.169 5.65273 14.3994 5.84556 14.5694C6.03839 14.7393 6.29984 14.8349 6.57254 14.8352H14.7156L18.0141 17.1855C18.0644 17.2214 18.1253 17.244 18.1896 17.2507C18.2539 17.2573 18.319 17.2478 18.3774 17.2233C18.4358 17.1987 18.4851 17.16 18.5197 17.1118C18.5542 17.0635 18.5725 17.0076 18.5725 16.9506L18.5725 7.28021ZM5.16529 10.6044C5.08682 10.6044 5.01073 10.6281 4.94972 10.6716L2.1154 12.6913V3.65384C2.11549 3.57372 2.15164 3.4969 2.21592 3.44025C2.2802 3.38359 2.36736 3.35173 2.45826 3.35165H13.4297C13.5206 3.35173 13.6077 3.38359 13.672 3.44025C13.7363 3.4969 13.7725 3.57372 13.7725 3.65384V6.67506L13.7725 6.67581L13.7725 6.67657V10.3022C13.7725 10.3823 13.7363 10.4591 13.672 10.5158C13.6077 10.5724 13.5206 10.6043 13.4297 10.6044H5.16529ZM15.0524 14.298C14.9914 14.2545 14.9153 14.2308 14.8369 14.2307H6.57254C6.48164 14.2307 6.39449 14.1988 6.33021 14.1421C6.26593 14.0855 6.22978 14.0087 6.22969 13.9285L6.2296 11.2088H13.4297C13.7024 11.2085 13.9638 11.1129 14.1567 10.9429C14.3495 10.773 14.458 10.5425 14.4583 10.3022V6.97801H17.5439C17.6348 6.97809 17.7219 7.00995 17.7862 7.06661C17.8505 7.12327 17.8867 7.20008 17.8867 7.28021L17.8868 16.3176L15.0524 14.298Z" fill="#FA4616"/>
</g>
<defs>
<clipPath id="clip0_2147_13055">
<rect width="17.1429" height="17.1429" fill="white" transform="translate(1.42969 1.42859)"/>
</clipPath>
</defs>
</svg>
