<svg width="24" height="24" viewBox="0 0 24 24" fill="none" xmlns="http://www.w3.org/2000/svg">
<g clip-path="url(#clip0_3001_18174)">
<path d="M6.88936 10.6822C6.7288 10.5202 6.63917 10.3011 6.64018 10.073C6.64118 9.84495 6.73274 9.62663 6.89471 9.46608C7.05668 9.30553 7.2758 9.2159 7.50386 9.2169C7.73192 9.21791 7.95023 9.30947 8.11078 9.47144L11.1429 12.5036V2.57144C11.1429 2.34411 11.2332 2.12609 11.394 1.96535C11.5547 1.8046 11.7727 1.71429 12.0001 1.71429C12.2274 1.71429 12.4454 1.8046 12.6062 1.96535C12.7669 2.12609 12.8572 2.34411 12.8572 2.57144V12.5036L15.8894 9.47144C15.9689 9.39124 16.0634 9.32748 16.1675 9.28381C16.2716 9.24013 16.3834 9.2174 16.4963 9.2169C16.6092 9.2164 16.7211 9.23815 16.8256 9.28091C16.9302 9.32366 17.0252 9.38658 17.1054 9.46608C17.1856 9.54558 17.2494 9.64009 17.2931 9.74423C17.3367 9.84836 17.3595 9.96008 17.36 10.073C17.3605 10.1859 17.3387 10.2978 17.296 10.4024C17.2532 10.5069 17.1903 10.602 17.1108 10.6822L12.6108 15.1821C12.4469 15.3406 12.228 15.4291 12.0001 15.4291C11.7722 15.4291 11.5532 15.3406 11.3894 15.1821L6.88936 10.6822ZM21.4286 13.7143C21.2013 13.7143 20.9833 13.8046 20.8225 13.9653C20.6618 14.1261 20.5715 14.3441 20.5715 14.5714V20.5714H3.42864V14.5714C3.42864 14.3441 3.33834 14.1261 3.17759 13.9653C3.01684 13.8046 2.79883 13.7143 2.5715 13.7143C2.34417 13.7143 2.12615 13.8046 1.96541 13.9653C1.80466 14.1261 1.71436 14.3441 1.71436 14.5714V20.5714C1.71436 21.0261 1.89497 21.4621 2.21646 21.7836C2.53795 22.1051 2.97398 22.2857 3.42864 22.2857H20.5715C21.0262 22.2857 21.4622 22.1051 21.7837 21.7836C22.1052 21.4621 22.2858 21.0261 22.2858 20.5714V14.5714C22.2858 14.3441 22.1955 14.1261 22.0347 13.9653C21.874 13.8046 21.656 13.7143 21.4286 13.7143Z" fill="#C62B0D"/>
</g>
<defs>
<clipPath id="clip0_3001_18174">
<rect width="20.5714" height="20.5714" fill="white" transform="translate(1.71436 1.71429)"/>
</clipPath>
</defs>
</svg>
