<svg width="20" height="20" viewBox="0 0 20 20" fill="none" xmlns="http://www.w3.org/2000/svg">
<g clip-path="url(#clip0_2147_13061)">
<path d="M15.2625 8.16328C15.2625 6.70189 14.7084 5.30034 13.722 4.26698C12.7356 3.23362 11.3978 2.65308 10.0028 2.65308C8.60782 2.65308 7.26998 3.23362 6.28359 4.26698C5.2972 5.30034 4.74305 6.70189 4.74305 8.16328C4.74305 10.4237 6.46941 13.3698 10.0028 16.8988C13.5362 13.3698 15.2625 10.4237 15.2625 8.16328ZM10.0028 18.5714C5.71669 14.4902 3.57422 11.02 3.57422 8.16328C3.57422 6.37713 4.25151 4.66413 5.4571 3.40114C6.66269 2.13814 8.29783 1.42859 10.0028 1.42859C11.7078 1.42859 13.3429 2.13814 14.5485 3.40114C15.7541 4.66413 16.4314 6.37713 16.4314 8.16328C16.4314 11.02 14.2889 14.4902 10.0028 18.5714Z" fill="#FA4616"/>
<path d="M10.0028 10C10.4678 10 10.9137 9.8065 11.2425 9.46205C11.5713 9.1176 11.756 8.65041 11.756 8.16328C11.756 7.67615 11.5713 7.20897 11.2425 6.86451C10.9137 6.52006 10.4678 6.32655 10.0028 6.32655C9.5378 6.32655 9.09186 6.52006 8.76306 6.86451C8.43426 7.20897 8.24954 7.67615 8.24954 8.16328C8.24954 8.65041 8.43426 9.1176 8.76306 9.46205C9.09186 9.8065 9.5378 10 10.0028 10ZM10.0028 11.2245C9.22781 11.2245 8.48457 10.902 7.93657 10.3279C7.38857 9.7538 7.08071 8.97517 7.08071 8.16328C7.08071 7.3514 7.38857 6.57276 7.93657 5.99867C8.48457 5.42458 9.22781 5.10206 10.0028 5.10206C10.7778 5.10206 11.521 5.42458 12.069 5.99867C12.617 6.57276 12.9249 7.3514 12.9249 8.16328C12.9249 8.97517 12.617 9.7538 12.069 10.3279C11.521 10.902 10.7778 11.2245 10.0028 11.2245Z" fill="#FA4616"/>
</g>
<defs>
<clipPath id="clip0_2147_13061">
<rect width="17.1429" height="17.1429" fill="white" transform="translate(1.42969 1.42859)"/>
</clipPath>
</defs>
</svg>
