<svg width="24" height="25" viewBox="0 0 24 25" fill="none" xmlns="http://www.w3.org/2000/svg">
<g clip-path="url(#clip0_1782_7037)">
<path d="M4.71447 22.7858C4.4712 22.7852 4.23221 22.7221 4.02053 22.6027C3.79984 22.4813 3.61611 22.3029 3.48871 22.0863C3.36132 21.8696 3.295 21.6226 3.29674 21.3715V3.62607C3.29674 3.37528 3.3638 3.12901 3.49103 2.91261C3.61825 2.6962 3.80104 2.51747 4.0206 2.39479C4.24016 2.27211 4.48856 2.20991 4.74025 2.2146C4.99194 2.21929 5.23783 2.29069 5.45263 2.42146L20.0253 11.2942C20.2324 11.4203 20.4035 11.5973 20.5222 11.8082C20.641 12.0191 20.7033 12.2569 20.7033 12.4987C20.7033 12.7405 20.641 12.9783 20.5222 13.1892C20.4035 13.4001 20.2324 13.5771 20.0253 13.7032L5.45273 22.5759C5.23081 22.7124 4.97528 22.785 4.71447 22.7857V22.7858ZM4.71477 3.42339C4.67965 3.42374 4.64519 3.433 4.61467 3.45031C4.58283 3.46727 4.55632 3.49267 4.53808 3.52371C4.51984 3.55475 4.51058 3.59021 4.51133 3.62617V21.3715C4.51134 21.4074 4.52092 21.4425 4.5391 21.4734C4.55728 21.5044 4.5834 21.5299 4.61477 21.5474C4.64613 21.5649 4.68161 21.5738 4.71757 21.5731C4.75352 21.5724 4.78864 21.5622 4.81933 21.5436L19.392 12.671C19.4216 12.653 19.4461 12.6277 19.4631 12.5976C19.4801 12.5675 19.489 12.5335 19.489 12.4989C19.489 12.4643 19.4801 12.4304 19.4631 12.4002C19.4461 12.3701 19.4216 12.3448 19.392 12.3268L4.81933 3.45415C4.78805 3.43435 4.75182 3.4237 4.71477 3.42339Z" fill="#E6E6E6"/>
</g>
<defs>
<clipPath id="clip0_1782_7037">
<rect width="20.5714" height="20.5714" fill="white" transform="translate(1.71429 2.21436)"/>
</clipPath>
</defs>
</svg>
