<svg width="25" height="25" viewBox="0 0 25 25" fill="none" xmlns="http://www.w3.org/2000/svg">
<g clip-path="url(#clip0_2653_32164)">
<path d="M22.3206 8.37918C22.3216 8.26962 22.2994 8.161 22.2553 8.06002C22.2113 7.95903 22.1463 7.86781 22.0643 7.79196L16.0968 2.02273C15.9341 1.86966 15.7155 1.78454 15.4883 1.78578H5.23984C4.78683 1.78578 4.35238 1.95944 4.03205 2.26857C3.71173 2.5777 3.53177 2.99696 3.53177 3.43413V12.5001C3.53177 12.7186 3.62175 12.9283 3.78191 13.0828C3.94207 13.2374 4.1593 13.3242 4.38581 13.3242C4.61231 13.3242 4.82954 13.2374 4.9897 13.0828C5.14986 12.9283 5.23984 12.7186 5.23984 12.5001V3.43413H14.6342V8.37918C14.6342 8.59777 14.7242 8.8074 14.8844 8.96196C15.0445 9.11653 15.2618 9.20336 15.4883 9.20336H20.6125V21.566H18.0504C17.8239 21.566 17.6066 21.6528 17.4465 21.8074C17.2863 21.9619 17.1963 22.1716 17.1963 22.3902C17.1963 22.6087 17.2863 22.8184 17.4465 22.9729C17.6066 23.1275 17.8239 23.2143 18.0504 23.2143H20.6125C21.0655 23.2143 21.4999 23.0407 21.8203 22.7315C22.1406 22.4224 22.3206 22.0032 22.3206 21.566V8.37918ZM16.3423 4.59828L19.4062 7.55501H16.3423V4.59828ZM15.0826 15.5083C14.959 15.4333 14.8176 15.3902 14.6718 15.383C14.5261 15.3758 14.3808 15.4047 14.2499 15.4671L12.0721 16.5282C12.045 16.1082 11.8535 15.7138 11.5364 15.4249C11.2192 15.1361 10.8001 14.9744 10.3641 14.9726H4.38581C3.9328 14.9726 3.49834 15.1462 3.17802 15.4554C2.85769 15.7645 2.67773 16.1838 2.67773 16.6209V20.7418C2.67773 21.179 2.85769 21.5982 3.17802 21.9074C3.49834 22.2165 3.9328 22.3902 4.38581 22.3902H10.3641C10.7922 22.3889 11.2042 22.2326 11.5186 21.9522C11.8329 21.6717 12.0267 21.2875 12.0615 20.8757L14.2286 21.9987C14.3519 22.0672 14.4919 22.1028 14.6342 22.1017C14.7892 22.1006 14.9408 22.0578 15.0719 21.9781C15.1985 21.9064 15.3035 21.804 15.3765 21.6812C15.4495 21.5583 15.488 21.4192 15.4883 21.2775V16.2088C15.4891 16.0682 15.4522 15.9297 15.3811 15.807C15.31 15.6842 15.2072 15.5813 15.0826 15.5083ZM10.3641 20.7418H4.38581V16.6209H10.3641V20.7418ZM13.7802 19.897L12.0721 19.011V18.362L13.7802 17.5378V19.897Z" fill="black"/>
</g>
<defs>
<clipPath id="clip0_2653_32164">
<rect width="21.4286" height="21.4286" fill="white" transform="translate(1.78516 1.78577)"/>
</clipPath>
</defs>
</svg>
