<svg width="18" height="18" viewBox="0 0 18 18" fill="none" xmlns="http://www.w3.org/2000/svg">
<g clip-path="url(#clip0_2961_7176)">
<path d="M2.54337 9.92571C2.70646 9.92571 2.86286 9.86069 2.97818 9.74495C3.0935 9.62922 3.15828 9.47224 3.15828 9.30857V2.52H9.92226V6.22286C9.92226 6.38653 9.98704 6.5435 10.1024 6.65924C10.2177 6.77498 10.3741 6.84 10.5372 6.84H14.2266V9.30857C14.2266 9.47224 14.2914 9.62922 14.4067 9.74495C14.522 9.86069 14.6784 9.92571 14.8415 9.92571C15.0046 9.92571 15.161 9.86069 15.2763 9.74495C15.3916 9.62922 15.4564 9.47224 15.4564 9.30857V6.22286C15.4576 6.14075 15.4419 6.05928 15.4101 5.98359C15.3783 5.90791 15.3313 5.83966 15.2719 5.78314L10.9753 1.46314C10.8581 1.34853 10.7008 1.28479 10.5372 1.28572H3.15828C2.83211 1.28572 2.51931 1.41576 2.28867 1.64723C2.05804 1.8787 1.92847 2.19265 1.92847 2.52V9.30857C1.92847 9.47224 1.99325 9.62922 2.10857 9.74495C2.22389 9.86069 2.38029 9.92571 2.54337 9.92571ZM11.1521 3.39171L13.358 5.60571H11.1521V3.39171ZM3.77319 11.7771H2.54337C2.38029 11.7771 2.22389 11.8422 2.10857 11.9579C1.99325 12.0736 1.92847 12.2306 1.92847 12.3943V16.0971C1.92847 16.2608 1.99325 16.4178 2.10857 16.5335C2.22389 16.6493 2.38029 16.7143 2.54337 16.7143C2.70646 16.7143 2.86286 16.6493 2.97818 16.5335C3.0935 16.4178 3.15828 16.2608 3.15828 16.0971V15.48H3.77319C4.26244 15.48 4.73165 15.2849 5.0776 14.9377C5.42355 14.5905 5.61791 14.1196 5.61791 13.6286C5.61791 13.1375 5.42355 12.6666 5.0776 12.3194C4.73165 11.9722 4.26244 11.7771 3.77319 11.7771ZM3.77319 14.2457H3.15828V13.0114H3.77319C3.93627 13.0114 4.09267 13.0764 4.20799 13.1922C4.32331 13.3079 4.38809 13.4649 4.38809 13.6286C4.38809 13.7922 4.32331 13.9492 4.20799 14.0649C4.09267 14.1807 3.93627 14.2457 3.77319 14.2457ZM13.9191 13.0114V13.9371H15.149C15.312 13.9371 15.4685 14.0022 15.5838 14.1179C15.6991 14.2336 15.7639 14.3906 15.7639 14.5543C15.7639 14.718 15.6991 14.8749 15.5838 14.9907C15.4685 15.1064 15.312 15.1714 15.149 15.1714H13.9191V16.0971C13.9191 16.2608 13.8544 16.4178 13.739 16.5335C13.6237 16.6493 13.4673 16.7143 13.3042 16.7143C13.1412 16.7143 12.9848 16.6493 12.8694 16.5335C12.7541 16.4178 12.6893 16.2608 12.6893 16.0971V12.3943C12.6893 12.2306 12.7541 12.0736 12.8694 11.9579C12.9848 11.8422 13.1412 11.7771 13.3042 11.7771H15.4564C15.6195 11.7771 15.7759 11.8422 15.8912 11.9579C16.0065 12.0736 16.0713 12.2306 16.0713 12.3943C16.0713 12.558 16.0065 12.7149 15.8912 12.8307C15.7759 12.9464 15.6195 13.0114 15.4564 13.0114H13.9191ZM8.69244 11.7771H7.61635C7.45327 11.7771 7.29687 11.8422 7.18155 11.9579C7.06623 12.0736 7.00145 12.2306 7.00145 12.3943V16.0971C7.00145 16.2608 7.06623 16.4178 7.18155 16.5335C7.29687 16.6493 7.45327 16.7143 7.61635 16.7143H8.69244C9.34478 16.7143 9.97039 16.4542 10.4317 15.9912C10.8929 15.5283 11.1521 14.9004 11.1521 14.2457C11.1521 13.591 10.8929 12.9631 10.4317 12.5002C9.97039 12.0372 9.34478 11.7771 8.69244 11.7771ZM8.69244 15.48H8.23126V13.0114H8.69244C9.01861 13.0114 9.33142 13.1415 9.56205 13.3729C9.79269 13.6044 9.92226 13.9184 9.92226 14.2457C9.92226 14.5731 9.79269 14.887 9.56205 15.1185C9.33142 15.35 9.01861 15.48 8.69244 15.48Z" fill="#575757"/>
</g>
<defs>
<clipPath id="clip0_2961_7176">
<rect width="15.4286" height="15.4286" fill="white" transform="translate(1.28564 1.28571)"/>
</clipPath>
</defs>
</svg>
