<svg width="24" height="24" viewBox="0 0 24 24" fill="none" xmlns="http://www.w3.org/2000/svg">
<g clip-path="url(#clip0_2999_1948)">
<path d="M18.8892 10.9715C19.0889 10.9715 19.2819 11.039 19.4324 11.1615C19.5829 11.2841 19.6808 11.4533 19.708 11.638L19.7157 11.7429V12.2572C19.7159 14.0095 19.0061 15.697 17.7289 16.9813C16.4516 18.2656 14.7013 19.0516 12.829 19.1816L12.8279 21.5145C12.8279 21.7099 12.7483 21.8981 12.6053 22.0409C12.4624 22.1837 12.2667 22.2705 12.0577 22.2839C11.8488 22.2972 11.6422 22.236 11.4798 22.1126C11.3174 21.9893 11.2111 21.813 11.1826 21.6194L11.1749 21.5145V19.1816C9.34715 19.055 7.63387 18.303 6.36359 17.0699C5.09331 15.8368 4.35545 14.2095 4.29152 12.5L4.28711 12.2572V11.7429C4.28717 11.5475 4.36673 11.3593 4.50969 11.2165C4.65266 11.0737 4.84838 10.9868 5.0573 10.9735C5.26623 10.9602 5.47279 11.0214 5.63523 11.1447C5.79768 11.2681 5.90391 11.4444 5.93246 11.638L5.94017 11.7429V12.2572C5.94004 13.651 6.51733 14.9909 7.55129 15.9965C8.58524 17.0022 9.99577 17.5958 11.4878 17.6532L11.7259 17.6573H12.2769C13.7702 17.6574 15.2058 17.1186 16.2833 16.1535C17.3608 15.1885 17.9968 13.872 18.0582 12.4794L18.0626 12.2572V11.7429C18.0626 11.5383 18.1497 11.3421 18.3047 11.1974C18.4597 11.0528 18.6699 10.9715 18.8892 10.9715ZM12.0014 1.71423C13.1705 1.71423 14.2917 2.14771 15.1184 2.91929C15.9451 3.69088 16.4096 4.73738 16.4096 5.82857V12.0001C16.4096 13.0913 15.9451 14.1378 15.1184 14.9093C14.2917 15.6809 13.1705 16.1144 12.0014 16.1144C10.8323 16.1144 9.71104 15.6809 8.88435 14.9093C8.05766 14.1378 7.59323 13.0913 7.59323 12.0001V5.82857C7.59323 4.73738 8.05766 3.69088 8.88435 2.91929C9.71104 2.14771 10.8323 1.71423 12.0014 1.71423ZM12.0014 3.25711C11.2707 3.25711 10.5699 3.52803 10.0532 4.01027C9.53656 4.49251 9.24629 5.14657 9.24629 5.82857V12.0001C9.24629 12.6821 9.53656 13.3361 10.0532 13.8184C10.5699 14.3006 11.2707 14.5715 12.0014 14.5715C12.7321 14.5715 13.4329 14.3006 13.9495 13.8184C14.4662 13.3361 14.7565 12.6821 14.7565 12.0001V5.82857C14.7565 5.14657 14.4662 4.49251 13.9495 4.01027C13.4329 3.52803 12.7321 3.25711 12.0014 3.25711Z" fill="#C62B0D"/>
</g>
<defs>
<clipPath id="clip0_2999_1948">
<rect width="20.5714" height="20.5714" fill="white" transform="translate(1.71484 1.71423)"/>
</clipPath>
</defs>
</svg>
