<svg width="24" height="24" viewBox="0 0 24 24" fill="none" xmlns="http://www.w3.org/2000/svg">
<g clip-path="url(#clip0_2999_832)">
<path d="M19.8583 22.2857C19.6959 22.2856 19.5384 22.2305 19.4118 22.1296L16.0368 19.4483H13.4297C13.2402 19.4483 13.0586 19.3735 12.9246 19.2405C12.7907 19.1075 12.7154 18.927 12.7154 18.7389V15.1921C12.7154 15.004 12.7907 14.8236 12.9246 14.6906C13.0586 14.5575 13.2402 14.4828 13.4297 14.4828H16.0368L19.4125 11.8014C19.5176 11.7182 19.6441 11.666 19.7777 11.6509C19.9112 11.6359 20.0464 11.6585 20.1675 11.7163C20.2887 11.7741 20.3909 11.8647 20.4626 11.9776C20.5342 12.0905 20.5724 12.2213 20.5725 12.3547V21.5763C20.5725 21.7644 20.4973 21.9449 20.3633 22.0779C20.2294 22.2109 20.0477 22.2857 19.8583 22.2857ZM14.144 18.0296H16.2868C16.4492 18.0297 16.6066 18.0847 16.7333 18.1856L19.144 20.1009V13.8302L16.7325 15.7454C16.6061 15.8462 16.4489 15.9012 16.2868 15.9015H14.144V18.0296Z" fill="#C62B0D"/>
<path d="M10.5725 20.1576H4.85826V3.13318H10.5725V7.38929C10.5737 7.7652 10.7245 8.1254 10.9922 8.39122C11.2599 8.65703 11.6226 8.80687 12.0011 8.80799H16.2868V10.936H17.7154V7.38929C17.7179 7.29606 17.7001 7.2034 17.6631 7.11768C17.6261 7.03196 17.5708 6.95522 17.5011 6.89274L12.5011 1.92728C12.4382 1.85801 12.361 1.80311 12.2746 1.76637C12.1883 1.72963 12.095 1.71192 12.0011 1.71447H4.85826C4.47973 1.7156 4.11702 1.86543 3.84936 2.13124C3.58169 2.39706 3.43082 2.75726 3.42969 3.13318V20.1576C3.43082 20.5335 3.58169 20.8937 3.84936 21.1595C4.11702 21.4254 4.47973 21.5752 4.85826 21.5763H10.5725V20.1576ZM12.0011 3.41692L16.0011 7.38929H12.0011V3.41692Z" fill="#C62B0D"/>
</g>
<defs>
<clipPath id="clip0_2999_832">
<rect width="20.5714" height="20.5714" fill="white" transform="translate(1.71484 1.71423)"/>
</clipPath>
</defs>
</svg>
