<svg width="24" height="24" viewBox="0 0 24 24" fill="none" xmlns="http://www.w3.org/2000/svg">
<g clip-path="url(#clip0_2999_3176)">
<path d="M14.7284 21.3646C14.7284 21.5817 14.6463 21.79 14.5001 21.9435C14.354 22.0971 14.1558 22.1833 13.9492 22.1833H11.2219C11.0152 22.1833 10.817 22.0971 10.6709 21.9435C10.5248 21.79 10.4427 21.5817 10.4427 21.3646V16.452C10.4427 16.2348 10.5248 16.0266 10.6709 15.873C10.817 15.7195 11.0152 15.6332 11.2219 15.6332C11.4285 15.6332 11.6267 15.7195 11.7729 15.873C11.919 16.0266 12.0011 16.2348 12.0011 16.452V20.5458H13.9492C14.1558 20.5458 14.354 20.6321 14.5001 20.7856C14.6463 20.9391 14.7284 21.1474 14.7284 21.3646ZM8.57254 15.797C8.49067 15.7325 8.39752 15.6855 8.29839 15.6588C8.19927 15.6321 8.09611 15.6262 7.99481 15.6414C7.89351 15.6566 7.79605 15.6927 7.708 15.7475C7.61995 15.8022 7.54303 15.8747 7.48163 15.9607L6.35176 17.5471L5.22189 15.9607C5.0979 15.787 4.9133 15.6722 4.70871 15.6414C4.50413 15.6107 4.29631 15.6667 4.13099 15.797C3.96566 15.9273 3.85636 16.1212 3.82713 16.3362C3.7979 16.5512 3.85114 16.7695 3.97514 16.9432L5.37774 18.9083L3.97514 20.8733C3.85114 21.047 3.7979 21.2654 3.82713 21.4803C3.85636 21.6953 3.96566 21.8893 4.13099 22.0196C4.26483 22.1279 4.42957 22.1856 4.59852 22.1833C4.71949 22.1833 4.8388 22.1537 4.94699 22.0969C5.05519 22.04 5.14931 21.9575 5.22189 21.8558L6.35176 20.2695L7.48163 21.8558C7.55421 21.9575 7.64833 22.04 7.75653 22.0969C7.86473 22.1537 7.98403 22.1833 8.105 22.1833C8.27395 22.1856 8.4387 22.1279 8.57254 22.0196C8.73787 21.8893 8.84717 21.6953 8.87639 21.4803C8.90562 21.2654 8.85238 21.047 8.72838 20.8733L7.32578 18.9083L8.72838 16.9432C8.85238 16.7695 8.90562 16.5512 8.87639 16.3362C8.84717 16.1212 8.73787 15.9273 8.57254 15.797ZM20.5725 8.28482V12.3582C20.5725 12.5753 20.4904 12.7836 20.3443 12.9371C20.1982 13.0907 20 13.1769 19.7933 13.1769C19.5866 13.1769 19.3884 13.0907 19.2423 12.9371C19.0962 12.7836 19.0141 12.5753 19.0141 12.3582V9.08311H14.3388C14.1321 9.08311 13.9339 8.99685 13.7878 8.8433C13.6416 8.68975 13.5595 8.4815 13.5595 8.26435V3.35177H4.98813V12.3582C4.98813 12.5753 4.90603 12.7836 4.7599 12.9371C4.61377 13.0907 4.41557 13.1769 4.20891 13.1769C4.00225 13.1769 3.80405 13.0907 3.65792 12.9371C3.51178 12.7836 3.42969 12.5753 3.42969 12.3582V3.35177C3.42969 2.91747 3.59388 2.50096 3.88614 2.19387C4.17841 1.88677 4.5748 1.71425 4.98813 1.71425H14.3388C14.5461 1.71302 14.7455 1.79758 14.894 1.94964L20.3388 7.68098C20.4135 7.75634 20.4728 7.84696 20.513 7.94728C20.5532 8.0476 20.5735 8.1555 20.5725 8.26435V8.28482ZM15.118 7.44559H17.9134L15.118 4.50827V7.44559ZM18.4004 18.069C18.0985 17.9872 17.5628 17.8336 17.4556 17.7006V17.6801C17.4556 17.3424 17.6894 17.1684 18.1375 17.1684C18.4855 17.1758 18.824 17.2896 19.1115 17.4959H19.1017C19.2431 17.6139 19.418 17.6787 19.5985 17.6801C19.8052 17.6801 20.0034 17.5939 20.1495 17.4403C20.2956 17.2868 20.3777 17.0785 20.3777 16.8614C20.3796 16.7415 20.3551 16.6227 20.3061 16.5144C20.2571 16.4061 20.1849 16.3112 20.0952 16.2371C19.5332 15.784 18.8458 15.536 18.1375 15.5309C16.8225 15.5309 15.8972 16.411 15.8972 17.6801C15.8972 18.9492 17.1634 19.42 18.0011 19.6554C18.3323 19.7475 18.6829 19.8396 18.8972 19.9727C19.1115 20.1057 19.0141 20.075 19.0141 20.1364C19.0141 20.1978 19.0141 20.6481 18.1375 20.6481C17.7894 20.6407 17.4509 20.5269 17.1634 20.3206H17.1732C17.0318 20.2027 16.8569 20.1378 16.6764 20.1364C16.4698 20.1364 16.2716 20.2227 16.1254 20.3762C15.9793 20.5298 15.8972 20.738 15.8972 20.9552C15.8953 21.0751 15.9198 21.1938 15.9688 21.3021C16.0178 21.4104 16.09 21.5053 16.1797 21.5795C16.7417 22.0326 17.4291 22.2805 18.1375 22.2857C19.6569 22.2857 20.5725 21.4771 20.5725 20.1364C20.5725 18.7957 19.2089 18.2942 18.4004 18.069Z" fill="#C62B0D"/>
</g>
<defs>
<clipPath id="clip0_2999_3176">
<rect width="20.5714" height="20.5714" fill="white" transform="translate(1.71484 1.71423)"/>
</clipPath>
</defs>
</svg>
