<svg width="32" height="32" viewBox="0 0 32 32" fill="none" xmlns="http://www.w3.org/2000/svg">
<g clip-path="url(#clip0_2878_27165)">
<path fill-rule="evenodd" clip-rule="evenodd" d="M27.4286 10.0001V26.2858C27.4286 27.1951 27.0845 28.0671 26.4722 28.7101C25.8598 29.3531 25.0293 29.7143 24.1633 29.7143H22.5306V28.0001H24.1633C24.5963 28.0001 25.0115 27.8194 25.3177 27.4979C25.6239 27.1765 25.7959 26.7404 25.7959 26.2858V10.0001H22.5306C21.8811 10.0001 21.2582 9.72913 20.7989 9.2469C20.3396 8.76466 20.0816 8.11061 20.0816 7.42862V4.00005H11.102C10.669 4.00005 10.2538 4.18066 9.94758 4.50215C9.6414 4.82365 9.46939 5.25968 9.46939 5.71434V21.1429H7.83673V5.71434C7.83673 4.80502 8.18076 3.93295 8.79312 3.28997C9.40548 2.64699 10.236 2.28577 11.102 2.28577H20.0816L27.4286 10.0001ZM7.18367 22.6001H4.57143V29.4555H5.86286V27.1549H7.17388C7.64245 27.1549 8.04082 27.0572 8.36898 26.8583C8.70041 26.6578 8.95347 26.3869 9.1249 26.0458C9.30284 25.6878 9.39317 25.289 9.38776 24.8852C9.38776 24.4566 9.30122 24.0692 9.1298 23.7246C8.95928 23.3821 8.69859 23.0983 8.37878 22.9069C8.05224 22.7012 7.65551 22.6001 7.18367 22.6001V22.6001ZM8.07347 24.8852C8.07935 25.1111 8.03167 25.3349 7.93469 25.5366C7.8477 25.7122 7.71228 25.8562 7.54612 25.9498C7.35606 26.0485 7.14584 26.0968 6.93388 26.0903H5.85796V23.6801H6.93551C7.29143 23.6801 7.57061 23.7829 7.77143 23.9903C7.97224 24.1995 8.07347 24.4978 8.07347 24.8852ZM10.0604 22.6001V29.4555H12.4441C13.0988 29.4555 13.6424 29.3183 14.0735 29.0492C14.5096 28.7752 14.8502 28.3611 15.0449 27.8681C15.2571 27.3538 15.3649 26.7332 15.3649 26.0098C15.3649 25.2898 15.2588 24.6761 15.0449 24.1669C14.8525 23.6796 14.5152 23.2706 14.0833 23.0012C13.6522 22.7338 13.1053 22.6001 12.4424 22.6001H10.0604V22.6001ZM11.3518 23.7058H12.271C12.6759 23.7058 13.0057 23.7915 13.2653 23.9663C13.5348 24.1514 13.7381 24.4251 13.8433 24.7446C13.9722 25.0892 14.0359 25.5195 14.0359 26.0355C14.041 26.3774 14.0037 26.7185 13.9249 27.0503C13.8667 27.312 13.7578 27.5583 13.6049 27.7738C13.4628 27.966 13.2746 28.1151 13.0596 28.2058C12.8076 28.3048 12.54 28.3525 12.271 28.3463H11.3518V23.7058V23.7058ZM17.4629 26.7281V29.4555H16.1731V22.6001H20.3331V23.7195H17.4629V25.6343H20.0849V26.7281H17.4629V26.7281Z" fill="white"/>
</g>
<defs>
<clipPath id="clip0_2878_27165">
<rect width="27.4286" height="27.4286" fill="white" transform="translate(2.28571 2.28577)"/>
</clipPath>
</defs>
</svg>
