<svg width="12" height="12" viewBox="0 0 12 12" fill="none" xmlns="http://www.w3.org/2000/svg">
<g clip-path="url(#clip0_2898_1973)">
<path d="M10.7758 10.3517H1.22477C1.12734 10.3517 1.03391 10.3934 0.965015 10.4676C0.896124 10.5417 0.857422 10.6424 0.857422 10.7473C0.857422 10.8522 0.896124 10.9528 0.965015 11.027C1.03391 11.1012 1.12734 11.1429 1.22477 11.1429H10.7758C10.8732 11.1429 10.9667 11.1012 11.0355 11.027C11.1044 10.9528 11.1431 10.8522 11.1431 10.7473C11.1431 10.6424 11.1044 10.5417 11.0355 10.4676C10.9667 10.3934 10.8732 10.3517 10.7758 10.3517Z" fill="black"/>
<path d="M6.01895 9.9561L9.86974 6.33201C9.9292 6.26666 9.96027 6.18261 9.95674 6.09665C9.95321 6.01068 9.91534 5.92913 9.85071 5.8683C9.78607 5.80747 9.69942 5.77183 9.60808 5.76851C9.51673 5.76519 9.42742 5.79443 9.35799 5.85039L6.38189 8.64788V1.59438C6.38189 1.50379 6.34365 1.41691 6.27558 1.35285C6.20752 1.28879 6.1152 1.25281 6.01895 1.25281C5.92269 1.25281 5.83037 1.28879 5.76231 1.35285C5.69424 1.41691 5.65601 1.50379 5.65601 1.59438V8.64788L2.68353 5.85039C2.65099 5.81463 2.61096 5.78559 2.56593 5.76509C2.5209 5.74459 2.47185 5.73307 2.42187 5.73125C2.37189 5.72943 2.32204 5.73736 2.27547 5.75453C2.22889 5.7717 2.18659 5.79775 2.15122 5.83104C2.11585 5.86433 2.08818 5.90414 2.06993 5.94797C2.05168 5.9918 2.04326 6.03871 2.04519 6.08575C2.04712 6.13279 2.05936 6.17895 2.08115 6.22133C2.10293 6.26371 2.13379 6.30139 2.17179 6.33201L6.01895 9.9561Z" fill="black"/>
</g>
<defs>
<clipPath id="clip0_2898_1973">
<rect width="10.2857" height="10.2857" fill="white" transform="translate(0.857422 0.857178)"/>
</clipPath>
</defs>
</svg>
