<svg width="24" height="24" viewBox="0 0 24 24" fill="none" xmlns="http://www.w3.org/2000/svg">
<g clip-path="url(#clip0_2999_2104)">
<path opacity="0.2" d="M19.7148 8.57141H13.7148V2.57141L19.7148 8.57141Z" fill="#C62B0D"/>
<path d="M5.76735 15.7028H4.20891C4.00225 15.7028 3.80405 15.7895 3.65792 15.9438C3.51178 16.0981 3.42969 16.3074 3.42969 16.5257V21.4628C3.42969 21.681 3.51178 21.8903 3.65792 22.0447C3.80405 22.199 4.00225 22.2857 4.20891 22.2857C4.41557 22.2857 4.61377 22.199 4.7599 22.0447C4.90603 21.8903 4.98813 21.681 4.98813 21.4628V20.6399H5.76735C6.38733 20.6399 6.98192 20.3799 7.42032 19.9169C7.85872 19.454 8.105 18.8261 8.105 18.1714C8.105 17.5167 7.85872 16.8888 7.42032 16.4258C6.98192 15.9629 6.38733 15.7028 5.76735 15.7028ZM5.76735 18.9942H4.98813V17.3485H5.76735C5.97401 17.3485 6.1722 17.4352 6.31834 17.5895C6.46447 17.7438 6.54657 17.9531 6.54657 18.1714C6.54657 18.3896 6.46447 18.5989 6.31834 18.7532C6.1722 18.9075 5.97401 18.9942 5.76735 18.9942ZM12.0011 15.7028H10.4427C10.236 15.7028 10.0378 15.7895 9.89167 15.9438C9.74554 16.0981 9.66344 16.3074 9.66344 16.5257V21.4628C9.66344 21.681 9.74554 21.8903 9.89167 22.0447C10.0378 22.199 10.236 22.2857 10.4427 22.2857C10.6493 22.2857 10.8475 22.199 10.9937 22.0447C11.1398 21.8903 11.2219 21.681 11.2219 21.4628V20.6399H12.0011C12.6211 20.6399 13.2157 20.3799 13.6541 19.9169C14.0925 19.454 14.3388 18.8261 14.3388 18.1714C14.3388 17.5167 14.0925 16.8888 13.6541 16.4258C13.2157 15.9629 12.6211 15.7028 12.0011 15.7028ZM12.0011 18.9942H11.2219V17.3485H12.0011C12.2078 17.3485 12.406 17.4352 12.5521 17.5895C12.6982 17.7438 12.7803 17.9531 12.7803 18.1714C12.7803 18.3896 12.6982 18.5989 12.5521 18.7532C12.406 18.9075 12.2078 18.9942 12.0011 18.9942ZM20.5725 16.5257C20.5725 16.7439 20.4904 16.9532 20.3443 17.1075C20.1982 17.2618 20 17.3485 19.7933 17.3485H18.8193V21.4628C18.8193 21.681 18.7372 21.8903 18.591 22.0447C18.4449 22.199 18.2467 22.2857 18.0401 22.2857C17.8334 22.2857 17.6352 22.199 17.4891 22.0447C17.3429 21.8903 17.2608 21.681 17.2608 21.4628V17.3485H16.2868C16.0801 17.3485 15.8819 17.2618 15.7358 17.1075C15.5897 16.9532 15.5076 16.7439 15.5076 16.5257C15.5076 16.3074 15.5897 16.0981 15.7358 15.9438C15.8819 15.7895 16.0801 15.7028 16.2868 15.7028H19.7933C20 15.7028 20.1982 15.7895 20.3443 15.9438C20.4904 16.0981 20.5725 16.3074 20.5725 16.5257ZM20.5725 8.2971C20.5735 8.18771 20.5532 8.07927 20.513 7.97844C20.4728 7.87762 20.4135 7.78655 20.3388 7.71081L14.894 1.95082C14.7455 1.79799 14.5461 1.71301 14.3388 1.71425H4.98813C4.5748 1.71425 4.17841 1.88763 3.88614 2.19626C3.59388 2.5049 3.42969 2.92349 3.42969 3.35996V12.4114C3.42969 12.6296 3.51178 12.8389 3.65792 12.9932C3.80405 13.1475 4.00225 13.2342 4.20891 13.2342C4.41557 13.2342 4.61377 13.1475 4.7599 12.9932C4.90603 12.8389 4.98813 12.6296 4.98813 12.4114V3.35996H13.5595V8.2971C13.5595 8.51533 13.6416 8.72463 13.7878 8.87895C13.9339 9.03326 14.1321 9.11996 14.3388 9.11996H19.0141V12.4114C19.0141 12.6296 19.0962 12.8389 19.2423 12.9932C19.3884 13.1475 19.5866 13.2342 19.7933 13.2342C20 13.2342 20.1982 13.1475 20.3443 12.9932C20.4904 12.8389 20.5725 12.6296 20.5725 12.4114V8.2971ZM15.118 4.52224L17.9134 7.47424H15.118V4.52224Z" fill="#C62B0D"/>
</g>
<defs>
<clipPath id="clip0_2999_2104">
<rect width="20.5714" height="20.5714" fill="white" transform="translate(1.71484 1.71423)"/>
</clipPath>
</defs>
</svg>
