<svg width="14" height="15" viewBox="0 0 14 15" fill="none" xmlns="http://www.w3.org/2000/svg">
<g clip-path="url(#clip0_45_26604)">
<path d="M11.0179 6.90006C11.1344 6.90007 11.2469 6.93945 11.3347 7.01092C11.4225 7.0824 11.4797 7.18113 11.4955 7.28887L11.5 7.35007V7.65007C11.5001 8.67224 11.0861 9.65664 10.341 10.4058C9.59595 11.1549 8.57493 11.6134 7.48279 11.6893L7.48214 13.0501C7.48211 13.1641 7.4357 13.2739 7.3523 13.3572C7.26891 13.4405 7.15474 13.4912 7.03286 13.499C6.91099 13.5067 6.7905 13.471 6.69574 13.3991C6.60097 13.3271 6.53901 13.2243 6.52236 13.1113L6.51786 13.0501V11.6893C5.45169 11.6154 4.45227 11.1768 3.71128 10.4575C2.97028 9.73819 2.53987 8.78891 2.50257 7.79167L2.5 7.65007V7.35007C2.50004 7.23605 2.54644 7.1263 2.62984 7.04299C2.71324 6.95968 2.82741 6.90902 2.94928 6.90125C3.07115 6.89348 3.19164 6.92917 3.28641 7.00112C3.38117 7.07307 3.44313 7.17591 3.45979 7.28887L3.46429 7.35007V7.65007C3.46421 8.46312 3.80096 9.24471 4.4041 9.83135C5.00724 10.418 5.83005 10.7643 6.70043 10.7977L6.83929 10.8001H7.16071C8.03183 10.8002 8.86923 10.4859 9.49777 9.92293C10.1263 9.36 10.4973 8.59203 10.5331 7.77967L10.5357 7.65007V7.35007C10.5357 7.23072 10.5865 7.11626 10.6769 7.03187C10.7673 6.94747 10.89 6.90006 11.0179 6.90006ZM7 1.5C7.68199 1.5 8.33604 1.75286 8.81827 2.20295C9.30051 2.65304 9.57143 3.2635 9.57143 3.90003V7.50007C9.57143 8.1366 9.30051 8.74705 8.81827 9.19714C8.33604 9.64724 7.68199 9.9001 7 9.9001C6.31801 9.9001 5.66396 9.64724 5.18173 9.19714C4.69949 8.74705 4.42857 8.1366 4.42857 7.50007V3.90003C4.42857 3.2635 4.69949 2.65304 5.18173 2.20295C5.66396 1.75286 6.31801 1.5 7 1.5ZM7 2.40001C6.57376 2.40001 6.16498 2.55805 5.86358 2.83936C5.56218 3.12066 5.39286 3.5022 5.39286 3.90003V7.50007C5.39286 7.8979 5.56218 8.27943 5.86358 8.56074C6.16498 8.84205 6.57376 9.00009 7 9.00009C7.42624 9.00009 7.83502 8.84205 8.13642 8.56074C8.43782 8.27943 8.60714 7.8979 8.60714 7.50007V3.90003C8.60714 3.5022 8.43782 3.12066 8.13642 2.83936C7.83502 2.55805 7.42624 2.40001 7 2.40001Z" fill="white"/>
</g>
<defs>
<clipPath id="clip0_45_26604">
<rect width="12" height="12" fill="white" transform="translate(1 1.5)"/>
</clipPath>
</defs>
</svg>
