<svg width="24" height="24" viewBox="0 0 24 24" fill="none" xmlns="http://www.w3.org/2000/svg">
<path d="M14.4104 6.47111V10.2268L15.7384 11.0531C15.7863 11.0635 15.836 11.0635 15.8839 11.0531L21.5936 7.24459C21.5894 7.05976 21.5211 6.88198 21.4 6.74112C21.279 6.60027 21.1126 6.50492 20.9289 6.47111H14.4104Z" fill="#0072C6"/>
<path d="M14.4104 11.6277L15.6212 12.4505C15.6779 12.4847 15.743 12.5028 15.8094 12.5028C15.8758 12.5028 15.9409 12.4847 15.9976 12.4505C15.7896 12.5747 21.5929 8.76277 21.5929 8.76277V15.6652C21.608 15.805 21.5921 15.9465 21.5462 16.0796C21.5003 16.2127 21.4255 16.3344 21.3272 16.4359C21.2288 16.5375 21.1092 16.6166 20.9767 16.6676C20.8442 16.7187 20.7021 16.7404 20.5602 16.7315H14.4097V11.6277H14.4104ZM8.14208 9.89625C7.9409 9.89529 7.7432 9.9482 7.56993 10.0494C7.39667 10.1505 7.25429 10.2962 7.15789 10.4709C6.8946 10.934 6.76826 11.461 6.79333 11.9918C6.76596 12.5215 6.89247 13.0478 7.15789 13.5086C7.25389 13.6761 7.39276 13.8157 7.56055 13.9133C7.72834 14.0109 7.91914 14.063 8.11377 14.0646C8.3084 14.0661 8.50001 14.0169 8.66934 13.922C8.83868 13.827 8.97977 13.6897 9.07845 13.5237C9.34097 13.065 9.46486 12.5414 9.43539 12.0151C9.46545 11.4723 9.34566 10.9316 9.08884 10.451C8.99707 10.282 8.86037 10.141 8.69352 10.0432C8.52667 9.94546 8.33599 9.89464 8.14208 9.89625Z" fill="#0072C6"/>
<path d="M2.39844 4.56345V19.2563L13.6958 21.6V2.40002L2.39844 4.56345ZM9.95867 14.3939C9.74733 14.6886 9.46633 14.9277 9.14015 15.0904C8.81397 15.2531 8.45253 15.3343 8.08733 15.3271C7.73132 15.3334 7.37905 15.2545 7.06048 15.0971C6.74191 14.9398 6.46646 14.7086 6.25757 14.4233C5.76214 13.739 5.5143 12.9094 5.55408 12.0686C5.51193 11.1865 5.76425 10.3152 6.27212 9.58905C6.48613 9.28866 6.77154 9.04497 7.10321 8.87947C7.43487 8.71397 7.80259 8.63174 8.17396 8.64002C8.52739 8.63301 8.87716 8.71193 9.19256 8.86987C9.50797 9.0278 9.77936 9.25992 9.98293 9.54585C10.4734 10.245 10.717 11.0848 10.676 11.9349C10.7192 12.8106 10.4669 13.6756 9.95867 14.3939Z" fill="#0072C6"/>
</svg>
