<svg width="18" height="18" viewBox="0 0 18 18" fill="none" xmlns="http://www.w3.org/2000/svg">
<g clip-path="url(#clip0_2961_7150)">
<path fill-rule="evenodd" clip-rule="evenodd" d="M2.82902 14.5334V7.8684H3.85751V14.5334C3.85751 14.6693 3.91169 14.7998 4.00812 14.8959C4.10456 14.992 4.23536 15.0461 4.37175 15.0461H13.6281C13.7645 15.0461 13.8953 14.992 13.9917 14.8959C14.0882 14.7998 14.1424 14.6693 14.1424 14.5334V7.8684H15.1708V14.5334C15.1708 14.9413 15.0083 15.3325 14.719 15.621C14.4297 15.9094 14.0373 16.0714 13.6281 16.0714H4.37175C3.96259 16.0714 3.57019 15.9094 3.28088 15.621C2.99156 15.3325 2.82902 14.9413 2.82902 14.5334ZM14.1424 3.25419V6.84302L12.0854 4.79226V3.25419C12.0854 3.11821 12.1396 2.98781 12.236 2.89166C12.3324 2.79551 12.4632 2.7415 12.5996 2.7415H13.6281C13.7645 2.7415 13.8953 2.79551 13.9917 2.89166C14.0882 2.98781 14.1424 3.11821 14.1424 3.25419Z" fill="#FA4616"/>
<path fill-rule="evenodd" clip-rule="evenodd" d="M8.27279 2.22881C8.46566 2.03658 8.72721 1.92859 8.99993 1.92859C9.27265 1.92859 9.5342 2.03658 9.72707 2.22881L16.5634 9.04349C16.66 9.13976 16.7142 9.27033 16.7142 9.40647C16.7142 9.54262 16.66 9.67319 16.5634 9.76946C16.4668 9.86573 16.3359 9.91981 16.1993 9.91981C16.0628 9.91981 15.9318 9.86573 15.8352 9.76946L8.99993 2.95375L2.16462 9.76946C2.06806 9.86573 1.93709 9.91981 1.80054 9.91981C1.66398 9.91981 1.53301 9.86573 1.43645 9.76946C1.33989 9.67319 1.28564 9.54262 1.28564 9.40647C1.28564 9.27033 1.33989 9.13976 1.43645 9.04349L8.27279 2.22881Z" fill="#FA4616"/>
</g>
<defs>
<clipPath id="clip0_2961_7150">
<rect width="15.4286" height="15.4286" fill="white" transform="translate(1.28564 1.28571)"/>
</clipPath>
</defs>
</svg>
