<svg width="24" height="25" viewBox="0 0 24 25" fill="none" xmlns="http://www.w3.org/2000/svg">
<g clip-path="url(#clip0_25_14406)">
<path d="M3.39214 13.7343C3.60959 13.7343 3.81812 13.6476 3.97188 13.4933C4.12564 13.339 4.21202 13.1297 4.21202 12.9114V3.86002H13.2306V8.79716C13.2306 9.0154 13.317 9.22469 13.4708 9.37901C13.6245 9.53332 13.8331 9.62002 14.0505 9.62002H18.9698V12.9114C18.9698 13.1297 19.0562 13.339 19.2099 13.4933C19.3637 13.6476 19.5722 13.7343 19.7897 13.7343C20.0071 13.7343 20.2156 13.6476 20.3694 13.4933C20.5232 13.339 20.6095 13.1297 20.6095 12.9114V8.79716C20.6111 8.68768 20.5901 8.57906 20.5478 8.47814C20.5054 8.37723 20.4427 8.28623 20.3636 8.21088L14.6347 2.45088C14.4785 2.29806 14.2687 2.21307 14.0505 2.21431H4.21202C3.77713 2.21431 3.36005 2.38769 3.05254 2.69633C2.74502 3.00496 2.57227 3.42355 2.57227 3.86002V12.9114C2.57227 13.1297 2.65865 13.339 2.8124 13.4933C2.96616 13.6476 3.1747 13.7343 3.39214 13.7343ZM14.8704 5.02231L17.8117 7.9743H14.8704V5.02231ZM5.03189 16.2029H3.39214C3.1747 16.2029 2.96616 16.2896 2.8124 16.4439C2.65865 16.5982 2.57227 16.8075 2.57227 17.0257V21.9629C2.57227 22.1811 2.65865 22.3904 2.8124 22.5447C2.96616 22.699 3.1747 22.7857 3.39214 22.7857C3.60959 22.7857 3.81812 22.699 3.97188 22.5447C4.12564 22.3904 4.21202 22.1811 4.21202 21.9629V21.14H5.03189C5.68423 21.14 6.30984 20.8799 6.77111 20.417C7.23238 19.954 7.49152 19.3261 7.49152 18.6714C7.49152 18.0167 7.23238 17.3888 6.77111 16.9259C6.30984 16.4629 5.68423 16.2029 5.03189 16.2029ZM5.03189 19.4943H4.21202V17.8486H5.03189C5.24934 17.8486 5.45788 17.9353 5.61163 18.0896C5.76539 18.2439 5.85177 18.4532 5.85177 18.6714C5.85177 18.8897 5.76539 19.099 5.61163 19.2533C5.45788 19.4076 5.24934 19.4943 5.03189 19.4943ZM18.5598 17.8486V19.0829H20.1996C20.417 19.0829 20.6256 19.1696 20.7793 19.3239C20.9331 19.4782 21.0195 19.6875 21.0195 19.9057C21.0195 20.124 20.9331 20.3333 20.7793 20.4876C20.6256 20.6419 20.417 20.7286 20.1996 20.7286H18.5598V21.9629C18.5598 22.1811 18.4735 22.3904 18.3197 22.5447C18.1659 22.699 17.9574 22.7857 17.74 22.7857C17.5225 22.7857 17.314 22.699 17.1602 22.5447C17.0065 22.3904 16.9201 22.1811 16.9201 21.9629V17.0257C16.9201 16.8075 17.0065 16.5982 17.1602 16.4439C17.314 16.2896 17.5225 16.2029 17.74 16.2029H20.6095C20.827 16.2029 21.0355 16.2896 21.1893 16.4439C21.343 16.5982 21.4294 16.8075 21.4294 17.0257C21.4294 17.244 21.343 17.4533 21.1893 17.6076C21.0355 17.7619 20.827 17.8486 20.6095 17.8486H18.5598ZM11.5909 16.2029H10.1561C9.93867 16.2029 9.73013 16.2896 9.57638 16.4439C9.42262 16.5982 9.33624 16.8075 9.33624 17.0257V21.9629C9.33624 22.1811 9.42262 22.3904 9.57638 22.5447C9.73013 22.699 9.93867 22.7857 10.1561 22.7857H11.5909C12.4607 22.7857 13.2948 22.4389 13.9099 21.8217C14.5249 21.2044 14.8704 20.3672 14.8704 19.4943C14.8704 18.6214 14.5249 17.7842 13.9099 17.1669C13.2948 16.5496 12.4607 16.2029 11.5909 16.2029ZM11.5909 21.14H10.976V17.8486H11.5909C12.0258 17.8486 12.4429 18.022 12.7504 18.3306C13.0579 18.6392 13.2306 19.0578 13.2306 19.4943C13.2306 19.9308 13.0579 20.3494 12.7504 20.658C12.4429 20.9666 12.0258 21.14 11.5909 21.14Z" fill="#FA4616"/>
</g>
<defs>
<clipPath id="clip0_25_14406">
<rect width="20.5714" height="20.5714" fill="white" transform="translate(1.71484 2.21429)"/>
</clipPath>
</defs>
</svg>
