<svg width="20" height="20" viewBox="0 0 20 20" fill="none" xmlns="http://www.w3.org/2000/svg">
<g clip-path="url(#clip0_2812_12272)">
<path d="M13.5205 9.38774H10.6123V6.47957C10.6123 6.39539 10.5434 6.32651 10.4592 6.32651H9.54086C9.45668 6.32651 9.3878 6.39539 9.3878 6.47957V9.38774H6.47964C6.39546 9.38774 6.32658 9.45662 6.32658 9.5408V10.4592C6.32658 10.5434 6.39546 10.6122 6.47964 10.6122H9.3878V13.5204C9.3878 13.6046 9.45668 13.6735 9.54086 13.6735H10.4592C10.5434 13.6735 10.6123 13.6046 10.6123 13.5204V10.6122H13.5205C13.6046 10.6122 13.6735 10.5434 13.6735 10.4592V9.5408C13.6735 9.45662 13.6046 9.38774 13.5205 9.38774Z" fill="#1A1A1A"/>
<path d="M10 1.42857C5.2666 1.42857 1.42859 5.26658 1.42859 10C1.42859 14.7334 5.2666 18.5714 10 18.5714C14.7334 18.5714 18.5714 14.7334 18.5714 10C18.5714 5.26658 14.7334 1.42857 10 1.42857ZM10 17.1173C6.07017 17.1173 2.88267 13.9298 2.88267 10C2.88267 6.07016 6.07017 2.88266 10 2.88266C13.9299 2.88266 17.1174 6.07016 17.1174 10C17.1174 13.9298 13.9299 17.1173 10 17.1173Z" fill="#1A1A1A"/>
</g>
<defs>
<clipPath id="clip0_2812_12272">
<rect width="17.1429" height="17.1429" fill="white" transform="translate(1.42859 1.42857)"/>
</clipPath>
</defs>
</svg>
