<svg width="16" height="17" viewBox="0 0 16 17" fill="none" xmlns="http://www.w3.org/2000/svg">
<g id="icon_check">
<path id="Vector" d="M14.6454 4.60176L6.19775 13.0494C6.14871 13.0985 6.09048 13.1374 6.02639 13.164C5.96229 13.1906 5.89359 13.2042 5.8242 13.2042C5.75482 13.2042 5.68611 13.1906 5.62202 13.164C5.55792 13.1374 5.49969 13.0985 5.45066 13.0494L1.75482 9.35355C1.65575 9.25448 1.6001 9.12012 1.6001 8.98001C1.6001 8.8399 1.65575 8.70554 1.75482 8.60647C1.85389 8.5074 1.98826 8.45174 2.12837 8.45174C2.26847 8.45174 2.40284 8.5074 2.50191 8.60647L5.8242 11.9294L13.8983 3.85468C13.9974 3.75561 14.1317 3.69995 14.2718 3.69995C14.4119 3.69995 14.5463 3.75561 14.6454 3.85468C14.7444 3.95375 14.8001 4.08812 14.8001 4.22822C14.8001 4.36833 14.7444 4.5027 14.6454 4.60176Z" fill="white"/>
</g>
</svg>
