<svg width="18" height="18" viewBox="0 0 18 18" fill="none" xmlns="http://www.w3.org/2000/svg">
<g id="icon-base" clip-path="url(#clip0_3744_2315)">
<g id="Vector">
<path fill-rule="evenodd" clip-rule="evenodd" d="M2.14333 15.1482V7.74267H3.28609V15.1482C3.28609 15.2993 3.34629 15.4442 3.45344 15.551C3.5606 15.6578 3.70593 15.7179 3.85747 15.7179H14.1423C14.2939 15.7179 14.4392 15.6578 14.5463 15.551C14.6535 15.4442 14.7137 15.2993 14.7137 15.1482V7.74267H15.8565V15.1482C15.8565 15.6014 15.6759 16.0361 15.3544 16.3566C15.0329 16.6771 14.5969 16.8572 14.1423 16.8572H3.85747C3.40285 16.8572 2.96685 16.6771 2.64539 16.3566C2.32393 16.0361 2.14333 15.6014 2.14333 15.1482ZM14.7137 2.61577V6.60336L12.4282 4.32474V2.61577C12.4282 2.46469 12.4884 2.31979 12.5955 2.21296C12.7027 2.10613 12.848 2.04611 12.9996 2.04611H14.1423C14.2939 2.04611 14.4392 2.10613 14.5463 2.21296C14.6535 2.31979 14.7137 2.46469 14.7137 2.61577Z" fill="white"/>
<path fill-rule="evenodd" clip-rule="evenodd" d="M8.19196 1.47646C8.40626 1.26287 8.69688 1.14288 8.9999 1.14288C9.30291 1.14288 9.59353 1.26287 9.80783 1.47646L17.4038 9.04832C17.511 9.15529 17.5713 9.30037 17.5713 9.45164C17.5713 9.60291 17.511 9.74799 17.4038 9.85496C17.2965 9.96192 17.151 10.022 16.9992 10.022C16.8475 10.022 16.702 9.96192 16.5947 9.85496L8.9999 2.28195L1.40511 9.85496C1.29782 9.96192 1.1523 10.022 1.00057 10.022C0.848838 10.022 0.703322 9.96192 0.596032 9.85496C0.488742 9.74799 0.428467 9.60291 0.428467 9.45164C0.428467 9.30037 0.488742 9.15529 0.596032 9.04832L8.19196 1.47646Z" fill="white"/>
</g>
</g>
<defs>
<clipPath id="clip0_3744_2315">
<rect width="17.1429" height="17.1429" fill="white" transform="translate(0.428467 0.428589)"/>
</clipPath>
</defs>
</svg>
