<svg width="14" height="14" viewBox="0 0 14 14" fill="none" xmlns="http://www.w3.org/2000/svg">
<g clip-path="url(#clip0_4469_1524)">
<path d="M6.99996 0.143066C7.22729 0.143066 7.44531 0.233372 7.60606 0.394118C7.7668 0.554863 7.85711 0.772881 7.85711 1.00021V6.14307H13C13.2273 6.14307 13.4453 6.23337 13.6061 6.39412C13.7668 6.55486 13.8571 6.77288 13.8571 7.00021C13.8571 7.22754 13.7668 7.44555 13.6061 7.6063C13.4453 7.76705 13.2273 7.85735 13 7.85735H7.85711V13.0002C7.85711 13.2275 7.7668 13.4456 7.60606 13.6063C7.44531 13.767 7.22729 13.8574 6.99996 13.8574C6.77264 13.8574 6.55462 13.767 6.39387 13.6063C6.23313 13.4456 6.14282 13.2275 6.14282 13.0002V7.85735H0.999965C0.772637 7.85735 0.554619 7.76705 0.393874 7.6063C0.233128 7.44555 0.142822 7.22754 0.142822 7.00021C0.142822 6.77288 0.233128 6.55486 0.393874 6.39412C0.554619 6.23337 0.772637 6.14307 0.999965 6.14307H6.14282V1.00021C6.14282 0.772881 6.23313 0.554863 6.39387 0.394118C6.55462 0.233372 6.77264 0.143066 6.99996 0.143066V0.143066Z" fill="#333333"/>
</g>
<defs>
<clipPath id="clip0_4469_1524">
<rect width="13.7143" height="13.7143" fill="white" transform="translate(0.142822 0.143066)"/>
</clipPath>
</defs>
</svg>
