<svg width="25" height="25" viewBox="0 0 25 25" fill="none" xmlns="http://www.w3.org/2000/svg">
<g id="icon-base" clip-path="url(#clip0_3638_6209)">
<path id="Vector" d="M4.25635 24.4531C3.97673 24.4524 3.70202 24.3799 3.45872 24.2427C3.20505 24.1032 2.99386 23.8982 2.84744 23.6491C2.70101 23.4 2.62478 23.1162 2.62678 22.8276V2.43052C2.62678 2.14226 2.70386 1.85919 2.8501 1.61045C2.99633 1.36171 3.20644 1.15626 3.4588 1.01525C3.71117 0.874243 3.99669 0.802756 4.28598 0.808145C4.57528 0.813534 4.85791 0.895605 5.10481 1.04592L21.855 11.2444C22.0931 11.3894 22.2897 11.5929 22.4262 11.8353C22.5626 12.0777 22.6343 12.351 22.6343 12.6289C22.6343 12.9069 22.5626 13.1802 22.4262 13.4226C22.2897 13.665 22.0931 13.8685 21.855 14.0134L5.10493 24.212C4.84984 24.3688 4.55613 24.4523 4.25635 24.453V24.4531ZM4.2567 2.19755C4.21632 2.19795 4.17672 2.2086 4.14164 2.2285C4.10504 2.24799 4.07457 2.27719 4.0536 2.31286C4.03263 2.34854 4.02199 2.38931 4.02285 2.43064V22.8276C4.02286 22.8688 4.03388 22.9092 4.05478 22.9447C4.07568 22.9802 4.10569 23.0096 4.14175 23.0297C4.1778 23.0499 4.21859 23.0601 4.25991 23.0593C4.30124 23.0585 4.34161 23.0468 4.37687 23.0253L21.1271 12.827C21.1611 12.8063 21.1893 12.7772 21.2088 12.7426C21.2283 12.708 21.2385 12.6689 21.2385 12.6292C21.2385 12.5894 21.2283 12.5504 21.2088 12.5157C21.1893 12.4811 21.1611 12.452 21.1271 12.4313L4.37687 2.2329C4.34092 2.21015 4.29929 2.19791 4.2567 2.19755Z" fill="#002E5F"/>
</g>
<defs>
<clipPath id="clip0_3638_6209">
<rect width="23.6453" height="23.6453" fill="white" transform="translate(0.807861 0.807861)"/>
</clipPath>
</defs>
</svg>
