<svg width="14" height="15" viewBox="0 0 14 15" fill="none" xmlns="http://www.w3.org/2000/svg">
<g id="icon-base" clip-path="url(#clip0_3526_1977)">
<path id="Vector" d="M2.14299 14.3572C1.98081 14.3568 1.82148 14.3147 1.68037 14.2351C1.53324 14.1542 1.41075 14.0353 1.32582 13.8908C1.24089 13.7464 1.19668 13.5817 1.19784 13.4143V1.58403C1.19784 1.41683 1.24255 1.25266 1.32736 1.10839C1.41218 0.964114 1.53404 0.844957 1.68041 0.763171C1.82678 0.681385 1.99238 0.639922 2.16018 0.643048C2.32797 0.646174 2.4919 0.693775 2.6351 0.780955L12.3502 6.69611C12.4883 6.78019 12.6024 6.89819 12.6815 7.0388C12.7606 7.1794 12.8022 7.33791 12.8022 7.49911C12.8022 7.66032 12.7606 7.81883 12.6815 7.95943C12.6024 8.10004 12.4883 8.21804 12.3502 8.30212L2.63517 14.2173C2.48721 14.3083 2.31686 14.3567 2.14299 14.3571V14.3572ZM2.14319 1.44891C2.11978 1.44914 2.09681 1.45531 2.07646 1.46685C2.05523 1.47816 2.03756 1.49509 2.0254 1.51579C2.01324 1.53648 2.00706 1.56012 2.00756 1.5841V13.4143C2.00757 13.4382 2.01396 13.4617 2.02608 13.4823C2.0382 13.5029 2.05561 13.5199 2.07652 13.5316C2.09743 13.5433 2.12109 13.5492 2.14506 13.5487C2.16902 13.5483 2.19244 13.5415 2.21289 13.529L11.928 7.614C11.9478 7.602 11.9641 7.58514 11.9754 7.56504C11.9867 7.54495 11.9927 7.52229 11.9927 7.49925C11.9927 7.47621 11.9867 7.45355 11.9754 7.43346C11.9641 7.41336 11.9478 7.3965 11.928 7.3845L2.21289 1.46941C2.19204 1.45621 2.16789 1.44911 2.14319 1.44891Z" fill="#002E5F"/>
</g>
<defs>
<clipPath id="clip0_3526_1977">
<rect width="13.7143" height="13.7143" fill="white" transform="translate(0.142883 0.642883)"/>
</clipPath>
</defs>
</svg>
