<svg width="12" height="12" viewBox="0 0 12 12" fill="none" xmlns="http://www.w3.org/2000/svg">
<g id="icon-base">
<path id="Vector" d="M3.27218 1.84615L0 10.1538H1.16544L2.188 7.55769H5.65815L6.68071 10.1538H7.84615L4.57397 1.84615H3.27218ZM2.59648 6.51923L3.9228 3.15202L5.24913 6.51923H2.59648Z" fill="#EEEEEE"/>
<path id="Vector_2" d="M9.74215 3.69231H10.1044C10.1366 3.69231 10.1527 3.70812 10.1527 3.73974V7.9141C10.1527 7.94573 10.1366 7.96154 10.1044 7.96154H9.74215C9.70995 7.96154 9.69385 7.94573 9.69385 7.9141V3.73974C9.69385 3.70812 9.70995 3.69231 9.74215 3.69231Z" fill="#EEEEEE"/>
<path id="Vector_3" d="M7.89449 5.6016H11.9517C11.9839 5.6016 12 5.61741 12 5.64904V6.00481C12 6.03643 11.9839 6.05224 11.9517 6.05224H7.89449C7.86229 6.05224 7.84619 6.03643 7.84619 6.00481V5.64904C7.84619 5.61741 7.86229 5.6016 7.89449 5.6016Z" fill="#EEEEEE"/>
</g>
</svg>
