<svg width="12" height="12" viewBox="0 0 12 12" fill="none" xmlns="http://www.w3.org/2000/svg">
<g id="icon-base" clip-path="url(#clip0_3744_2278)">
<path id="Vector" d="M11.3992 5.99933V5.99663C11.3992 4.39875 10.7036 2.96376 9.5989 1.97696L9.5935 1.97246C9.57986 1.95775 9.56462 1.94462 9.54805 1.93331L9.54715 1.93286C8.56605 1.07138 7.30436 0.597472 5.99875 0.600016C4.63446 0.600016 3.38897 1.10669 2.43955 1.94276L2.44539 1.93781C2.43395 1.94649 2.4234 1.95629 2.4139 1.96706V1.96751C1.84313 2.47292 1.38627 3.09385 1.07358 3.78916C0.760881 4.48447 0.599492 5.23829 0.600099 6.00068C0.600099 7.59811 1.29484 9.0331 2.3986 10.0204L2.404 10.0249C2.41829 10.0411 2.43428 10.0557 2.45169 10.0685L2.45259 10.069C3.43344 10.9292 4.69416 11.4024 5.99875 11.4C7.30943 11.402 8.57556 10.9244 9.5584 10.0573L9.55255 10.0622C10.1332 9.55735 10.5987 8.93367 10.9174 8.23334C11.2362 7.53301 11.4008 6.77239 11.4001 6.00293V5.99978L11.3992 5.99933ZM9.39146 9.51143C9.12399 9.29506 8.83634 9.10489 8.53249 8.94355L8.50324 8.92915C8.77906 8.13404 8.9451 7.21743 8.96085 6.26392V6.25672H10.8781C10.8135 7.4903 10.2825 8.65322 9.39281 9.51008L9.39146 9.51143ZM6.25703 8.83421C6.83433 8.86526 7.37383 8.99215 7.87149 9.19869L7.83909 9.18699C7.44043 10.096 6.87932 10.7205 6.25703 10.8578V8.83421ZM6.25703 8.31943V6.25672H8.44744C8.43006 7.1109 8.28196 7.95738 8.00828 8.76671L8.02583 8.70776C7.46718 8.47814 6.87301 8.34691 6.26963 8.31988L6.25748 8.31943H6.25703ZM6.25703 5.74194V3.67923C6.8767 3.65095 7.48676 3.51529 8.06003 3.2783L8.02448 3.29135C8.27421 4.01987 8.42764 4.85953 8.44744 5.73249V5.74194H6.25703ZM6.25703 3.16445V1.14179C6.87932 1.27904 7.44043 1.90091 7.83909 2.81257C7.37383 3.00606 6.83433 3.13251 6.27007 3.164L6.25703 3.16445ZM7.54122 1.36453C8.07143 1.54139 8.56731 1.80806 9.0072 2.1529L8.99685 2.1448C8.79751 2.30139 8.57388 2.44899 8.3381 2.57723L8.3129 2.58983C8.12238 2.14018 7.86042 1.72428 7.53717 1.35823L7.54122 1.36318V1.36453ZM5.74137 1.14314V3.16445C5.18634 3.13614 4.64027 3.01286 4.1269 2.79997L4.1593 2.81167C4.55977 1.90271 5.11997 1.27859 5.74227 1.14134L5.74137 1.14314ZM3.68594 2.58848C3.44203 2.45725 3.20962 2.30566 2.9912 2.13535L3.002 2.14345C3.42907 1.80873 3.90945 1.5483 4.42298 1.37308L4.45718 1.36273C4.14239 1.71886 3.88589 2.12253 3.69719 2.55878L3.68594 2.58803V2.58848ZM5.74227 3.67878V5.74149H3.55185C3.57165 4.85908 3.72509 4.01942 3.99237 3.23195L3.97482 3.2909C4.53325 3.52015 5.12708 3.65122 5.73012 3.67833L5.74227 3.67878ZM5.74227 6.25627V8.31898C5.1226 8.34726 4.51254 8.48292 3.93927 8.71991L3.97482 8.70686C3.72509 7.9788 3.57165 7.13868 3.55185 6.26572V6.25627H5.74227ZM5.74227 8.83376V10.8564C5.11997 10.7192 4.55887 10.0973 4.1602 9.18564C4.62546 8.99215 5.16497 8.86616 5.72922 8.83466L5.74227 8.83421V8.83376ZM4.45988 10.6337C3.9298 10.4573 3.43394 10.1913 2.9939 9.84711L3.0047 9.85521C3.20403 9.69862 3.42766 9.55103 3.66344 9.42278L3.68864 9.41018C3.87757 9.86002 4.13953 10.2755 4.46393 10.64L4.45988 10.6355V10.6337ZM8.31335 9.40973C8.57433 9.55148 8.79796 9.69862 9.0081 9.86286L8.9973 9.85476C8.57022 10.1895 8.08985 10.4499 7.57632 10.6251L7.54212 10.6355C7.8569 10.2795 8.1134 9.876 8.3021 9.43988L8.31335 9.41063V9.40973ZM10.8781 5.74194H8.96085C8.94706 4.81091 8.78639 3.88789 8.48479 3.00696L8.50324 3.06906C8.82109 2.90169 9.12202 2.70398 9.40181 2.47868L9.39101 2.48678C10.2789 3.34041 10.81 4.49902 10.8772 5.72889L10.8777 5.74149L10.8781 5.74194ZM2.60783 2.48723C2.86701 2.69783 3.15814 2.89087 3.46681 3.05511L3.49606 3.06951C3.22023 3.86462 3.05419 4.78123 3.03845 5.73474V5.74194H1.12071C1.18536 4.50837 1.7163 3.34544 2.60603 2.48858L2.60738 2.48723H2.60783ZM1.12116 6.25672H3.03845C3.05224 7.18775 3.2129 8.11077 3.51451 8.9917L3.49606 8.9296C3.15814 9.10915 2.86746 9.30219 2.59748 9.51998L2.60828 9.51188C1.72039 8.65825 1.18926 7.49964 1.12206 6.26977L1.12161 6.25717L1.12116 6.25672Z" fill="white"/>
</g>
<defs>
<clipPath id="clip0_3744_2278">
<rect width="10.8" height="10.8" fill="white" transform="translate(0.600098 0.600006)"/>
</clipPath>
</defs>
</svg>
