<svg width="18" height="18" viewBox="0 0 18 18" fill="none" xmlns="http://www.w3.org/2000/svg">
<g clip-path="url(#clip0_4451_7217)">
<path d="M1.82605 10.0286C2.00726 10.0286 2.18104 9.95632 2.30917 9.82772C2.4373 9.69913 2.50928 9.52471 2.50928 9.34285V1.8H10.0248V5.91428C10.0248 6.09614 10.0968 6.27056 10.2249 6.39915C10.3531 6.52775 10.5268 6.59999 10.708 6.59999H14.8074V9.34285C14.8074 9.52471 14.8794 9.69913 15.0075 9.82772C15.1357 9.95632 15.3094 10.0286 15.4906 10.0286C15.6719 10.0286 15.8456 9.95632 15.9738 9.82772C16.1019 9.69913 16.1739 9.52471 16.1739 9.34285V5.91428C16.1752 5.82305 16.1577 5.73253 16.1224 5.64843C16.0871 5.56434 16.0349 5.4885 15.9689 5.42571L11.1948 0.625712C11.0647 0.49836 10.8898 0.427541 10.708 0.428569H2.50928C2.14687 0.428569 1.79931 0.573059 1.54305 0.830251C1.28679 1.08744 1.14282 1.43627 1.14282 1.8V9.34285C1.14282 9.52471 1.21481 9.69913 1.34294 9.82772C1.47107 9.95632 1.64485 10.0286 1.82605 10.0286ZM11.3913 2.76857L13.8424 5.22857H11.3913V2.76857ZM3.19251 12.0857H1.82605C1.64485 12.0857 1.47107 12.1579 1.34294 12.2865C1.21481 12.4151 1.14282 12.5896 1.14282 12.7714V16.8857C1.14282 17.0676 1.21481 17.242 1.34294 17.3706C1.47107 17.4992 1.64485 17.5714 1.82605 17.5714C2.00726 17.5714 2.18104 17.4992 2.30917 17.3706C2.4373 17.242 2.50928 17.0676 2.50928 16.8857V16.2H3.19251C3.73612 16.2 4.25747 15.9833 4.64186 15.5975C5.02625 15.2117 5.2422 14.6884 5.2422 14.1428C5.2422 13.5973 5.02625 13.074 4.64186 12.6882C4.25747 12.3024 3.73612 12.0857 3.19251 12.0857ZM3.19251 14.8286H2.50928V13.4571H3.19251C3.37372 13.4571 3.5475 13.5294 3.67563 13.658C3.80376 13.7866 3.87574 13.961 3.87574 14.1428C3.87574 14.3247 3.80376 14.4991 3.67563 14.6277C3.5475 14.7563 3.37372 14.8286 3.19251 14.8286ZM14.4658 13.4571V14.4857H15.8323C16.0135 14.4857 16.1872 14.5579 16.3154 14.6865C16.4435 14.8151 16.5155 14.9896 16.5155 15.1714C16.5155 15.3533 16.4435 15.5277 16.3154 15.6563C16.1872 15.7849 16.0135 15.8571 15.8323 15.8571H14.4658V16.8857C14.4658 17.0676 14.3938 17.242 14.2657 17.3706C14.1376 17.4992 13.9638 17.5714 13.7826 17.5714C13.6014 17.5714 13.4276 17.4992 13.2995 17.3706C13.1713 17.242 13.0993 17.0676 13.0993 16.8857V12.7714C13.0993 12.5896 13.1713 12.4151 13.2995 12.2865C13.4276 12.1579 13.6014 12.0857 13.7826 12.0857H16.1739C16.3551 12.0857 16.5289 12.1579 16.657 12.2865C16.7851 12.4151 16.8571 12.5896 16.8571 12.7714C16.8571 12.9533 16.7851 13.1277 16.657 13.2563C16.5289 13.3849 16.3551 13.4571 16.1739 13.4571H14.4658ZM8.65835 12.0857H7.4627C7.28149 12.0857 7.10771 12.1579 6.97958 12.2865C6.85145 12.4151 6.77947 12.5896 6.77947 12.7714V16.8857C6.77947 17.0676 6.85145 17.242 6.97958 17.3706C7.10771 17.4992 7.28149 17.5714 7.4627 17.5714H8.65835C9.38316 17.5714 10.0783 17.2824 10.5908 16.7681C11.1033 16.2537 11.3913 15.556 11.3913 14.8286C11.3913 14.1011 11.1033 13.4035 10.5908 12.8891C10.0783 12.3747 9.38316 12.0857 8.65835 12.0857ZM8.65835 16.2H8.14593V13.4571H8.65835C9.02076 13.4571 9.36832 13.6016 9.62458 13.8588C9.88084 14.116 10.0248 14.4648 10.0248 14.8286C10.0248 15.1923 9.88084 15.5411 9.62458 15.7983C9.36832 16.0555 9.02076 16.2 8.65835 16.2Z" fill="#DDDDDD"/>
</g>
<defs>
<clipPath id="clip0_4451_7217">
<rect width="17.1429" height="17.1429" fill="white" transform="translate(0.428589 0.428558)"/>
</clipPath>
</defs>
</svg>
