<svg width="18" height="18" viewBox="0 0 18 18" fill="none" xmlns="http://www.w3.org/2000/svg">
<g clip-path="url(#clip0_4451_7223)">
<path d="M4.26628 17.5714H0.712068V6.12611H4.26628V17.5714ZM2.48703 4.56488C1.35066 4.56488 0.428589 3.62325 0.428589 2.48693C0.428589 1.94101 0.64546 1.41746 1.03149 1.03144C1.41752 0.645421 1.9411 0.428558 2.48703 0.428558C3.03296 0.428558 3.55653 0.645421 3.94257 1.03144C4.3286 1.41746 4.54547 1.94101 4.54547 2.48693C4.54547 3.62325 3.6234 4.56488 2.48703 4.56488ZM17.5684 17.5714H14.0221V12C14.0221 10.672 13.9952 8.96937 12.1743 8.96937C10.3265 8.96937 10.043 10.4118 10.043 11.9045V17.5714H6.49248V6.12611H9.90097V7.68733H9.95056C10.4251 6.78795 11.5841 5.83897 13.3131 5.83897C16.9102 5.83897 17.5714 8.20774 17.5714 11.2843V17.5714H17.5684Z" fill="#DDDDDD"/>
</g>
<defs>
<clipPath id="clip0_4451_7223">
<rect width="17.1429" height="17.1429" fill="white" transform="translate(0.428589 0.428558)"/>
</clipPath>
</defs>
</svg>
