<svg width="18" height="19" viewBox="0 0 18 19" fill="none" xmlns="http://www.w3.org/2000/svg">
<g id="icon-base" clip-path="url(#clip0_3526_6000)">
<path id="Vector" d="M17.2898 16.4379L14.0528 13.2103C15.0972 11.8798 15.6639 10.2367 15.6618 8.54517C15.6618 7.03875 15.2151 5.56616 14.3781 4.31361C13.5412 3.06107 12.3517 2.08483 10.9599 1.50835C9.56818 0.93187 8.03674 0.781036 6.55926 1.07492C5.08179 1.36881 3.72464 2.09422 2.65944 3.15942C1.59424 4.22462 0.868831 5.58177 0.574943 7.05924C0.281055 8.53672 0.431889 10.0682 1.00837 11.4599C1.58485 12.8517 2.56109 14.0412 3.81363 14.8781C5.06617 15.7151 6.53877 16.1618 8.04518 16.1618C9.73669 16.1639 11.3798 15.5972 12.7103 14.5528L15.9379 17.7898C16.0264 17.879 16.1317 17.9499 16.2477 17.9982C16.3637 18.0465 16.4882 18.0714 16.6139 18.0714C16.7395 18.0714 16.864 18.0465 16.98 17.9982C17.096 17.9499 17.2013 17.879 17.2898 17.7898C17.3791 17.7013 17.4499 17.596 17.4982 17.48C17.5466 17.364 17.5714 17.2395 17.5714 17.1138C17.5714 16.9881 17.5466 16.8637 17.4982 16.7477C17.4499 16.6317 17.3791 16.5264 17.2898 16.4379ZM2.33274 8.54517C2.33274 7.41535 2.66777 6.31091 3.29546 5.3715C3.92315 4.4321 4.81531 3.69992 5.85913 3.26756C6.90294 2.83519 8.05152 2.72207 9.15963 2.94248C10.2677 3.1629 11.2856 3.70696 12.0845 4.50586C12.8834 5.30476 13.4275 6.32262 13.6479 7.43072C13.8683 8.53883 13.7552 9.68741 13.3228 10.7312C12.8904 11.775 12.1583 12.6672 11.2188 13.2949C10.2794 13.9226 9.175 14.2576 8.04518 14.2576C6.53015 14.2576 5.07717 13.6558 4.00588 12.5845C2.93459 11.5132 2.33274 10.0602 2.33274 8.54517Z" fill="#01518C"/>
</g>
<defs>
<clipPath id="clip0_3526_6000">
<rect width="17.1429" height="17.1429" fill="white" transform="translate(0.428589 0.92857)"/>
</clipPath>
</defs>
</svg>
