<svg width="16" height="16" viewBox="0 0 16 16" fill="none" xmlns="http://www.w3.org/2000/svg">
<g clip-path="url(#clip0_4469_1746)">
<path fill-rule="evenodd" clip-rule="evenodd" d="M14.8572 7.99974C14.8572 8.27953 14.754 8.54786 14.5703 8.7457C14.3866 8.94354 14.1374 9.05469 13.8776 9.05469L2.12248 9.05469C1.86268 9.05469 1.61352 8.94354 1.42981 8.7457C1.2461 8.54786 1.14289 8.27953 1.14289 7.99974C1.14289 7.71995 1.2461 7.45162 1.42981 7.25378C1.61352 7.05594 1.86268 6.9448 2.12248 6.9448L13.8776 6.9448C14.1374 6.9448 14.3866 7.05594 14.5703 7.25378C14.754 7.45162 14.8572 7.71995 14.8572 7.99974Z" fill="#333333"/>
</g>
<defs>
<clipPath id="clip0_4469_1746">
<rect width="13.7143" height="13.7143" fill="white" transform="matrix(-1 0 0 -1 14.8572 14.8569)"/>
</clipPath>
</defs>
</svg>
