<svg width="16" height="15" viewBox="0 0 16 15" fill="none" xmlns="http://www.w3.org/2000/svg">
<g id="icon-base">
<g id="Vector">
<path d="M2.58471 12.0175L4.33142 10.6498H12.4309C12.692 10.6498 12.9424 10.5483 13.1271 10.3677C13.3117 10.1871 13.4155 9.9421 13.4155 9.68666V3.42627C13.4155 3.17083 13.3117 2.92586 13.1271 2.74523C12.9424 2.56461 12.692 2.46314 12.4309 2.46314H3.56933C3.30819 2.46314 3.05775 2.56461 2.8731 2.74523C2.68845 2.92586 2.58471 3.17083 2.58471 3.42627V12.0175ZM4.67702 11.6129L2.39961 13.3947C2.32722 13.4513 2.23999 13.4867 2.14794 13.4969C2.05589 13.5071 1.96277 13.4918 1.87926 13.4525C1.79576 13.4133 1.72526 13.3518 1.67588 13.2751C1.6265 13.1985 1.60023 13.1097 1.6001 13.0191V3.42627C1.6001 2.91539 1.80757 2.42544 2.17687 2.06419C2.54617 1.70295 3.04706 1.5 3.56933 1.5H12.4309C12.9531 1.5 13.454 1.70295 13.8233 2.06419C14.1926 2.42544 14.4001 2.91539 14.4001 3.42627V9.68666C14.4001 10.1975 14.1926 10.6875 13.8233 11.0487C13.454 11.41 12.9531 11.6129 12.4309 11.6129H4.67702Z" fill="#002E5F"/>
<path d="M5.53856 7.27882H10.4616C10.7898 7.27882 10.9539 7.43934 10.9539 7.76039C10.9539 8.08144 10.7898 8.24196 10.4616 8.24196H5.53856C5.21035 8.24196 5.04625 8.08144 5.04625 7.76039C5.04625 7.43934 5.21035 7.27882 5.53856 7.27882ZM5.53856 4.38941H10.4616C10.7898 4.38941 10.9539 4.54993 10.9539 4.87098C10.9539 5.19202 10.7898 5.35255 10.4616 5.35255H5.53856C5.21035 5.35255 5.04625 5.19202 5.04625 4.87098C5.04625 4.54993 5.21035 4.38941 5.53856 4.38941Z" fill="#002E5F"/>
</g>
</g>
</svg>
