<svg width="40" height="40" viewBox="0 0 40 40" fill="none" xmlns="http://www.w3.org/2000/svg">
<g id="phone">
<path id="Vector" d="M36.8505 28.5704V33.5704C36.8524 34.0346 36.7573 34.4941 36.5713 34.9194C36.3854 35.3447 36.1126 35.7264 35.7706 36.0402C35.4286 36.354 35.0248 36.5929 34.5851 36.7416C34.1453 36.8903 33.6794 36.9456 33.2171 36.9038C28.0885 36.3465 23.1621 34.594 18.8338 31.7871C14.8069 29.2282 11.3927 25.8141 8.83381 21.7871C6.0171 17.4391 4.26421 12.4888 3.71714 7.33711C3.67549 6.87622 3.73027 6.41171 3.87798 5.97315C4.02568 5.53459 4.26309 5.13159 4.57508 4.78981C4.88708 4.44803 5.26682 4.17496 5.69013 3.98798C6.11344 3.801 6.57104 3.70421 7.03381 3.70377H12.0338C12.8427 3.69581 13.6268 3.98224 14.2401 4.50966C14.8534 5.03709 15.2539 5.76952 15.3671 6.57044C15.5782 8.17055 15.9696 9.74165 16.5338 11.2538C16.758 11.8503 16.8066 12.4986 16.6737 13.1219C16.5407 13.7452 16.2319 14.3173 15.7838 14.7704L13.6671 16.8871C16.0397 21.0597 19.4946 24.5145 23.6671 26.8871L25.7838 24.7704C26.237 24.3223 26.8091 24.0135 27.4323 23.8806C28.0556 23.7477 28.7039 23.7962 29.3005 24.0204C30.8126 24.5847 32.3837 24.9761 33.9838 25.1871C34.7934 25.3013 35.5328 25.7091 36.0614 26.3329C36.5899 26.9567 36.8708 27.7531 36.8505 28.5704Z" stroke="#333333" stroke-width="2" stroke-linecap="round" stroke-linejoin="round"/>
</g>
</svg>
