<svg width="40" height="40" viewBox="0 0 40 40" fill="none" xmlns="http://www.w3.org/2000/svg">
<g id="icon_thumbs-up">
<path id="Vector" d="M11.6666 18.3334L18.3333 3.33337C19.6594 3.33337 20.9312 3.86016 21.8688 4.79784C22.8065 5.73552 23.3333 7.00729 23.3333 8.33337V15H32.7666C33.2498 14.9946 33.7284 15.0942 34.1693 15.2921C34.6101 15.4899 35.0027 15.7813 35.3197 16.1459C35.6368 16.5105 35.8708 16.9397 36.0055 17.4038C36.1403 17.8678 36.1725 18.3556 36.1 18.8334L33.8 33.8334C33.6794 34.6282 33.2757 35.3527 32.6632 35.8734C32.0506 36.394 31.2705 36.6758 30.4666 36.6667H11.6666M11.6666 18.3334V36.6667M11.6666 18.3334H6.66665C5.78259 18.3334 4.93474 18.6846 4.30962 19.3097C3.6845 19.9348 3.33331 20.7827 3.33331 21.6667V33.3334C3.33331 34.2174 3.6845 35.0653 4.30962 35.6904C4.93474 36.3155 5.78259 36.6667 6.66665 36.6667H11.6666" stroke="#0080CC" stroke-width="2" stroke-linecap="round" stroke-linejoin="round"/>
</g>
</svg>
