<svg width="40" height="40" viewBox="0 0 40 40" fill="none" xmlns="http://www.w3.org/2000/svg">
<g id="icon_youtube">
<path id="Vector" d="M37.5667 10.7C37.3687 9.90898 36.9655 9.18425 36.3978 8.59897C35.83 8.01369 35.1179 7.5886 34.3333 7.36663C31.4667 6.66663 20 6.66663 20 6.66663C20 6.66663 8.53333 6.66663 5.66666 7.43329C4.88208 7.65527 4.16996 8.08036 3.60224 8.66564C3.03452 9.25091 2.63131 9.97564 2.43333 10.7666C1.90869 13.6759 1.65206 16.6271 1.66666 19.5833C1.64796 22.5617 1.90461 25.5355 2.43333 28.4666C2.6516 29.233 3.06384 29.9302 3.63024 30.4908C4.19663 31.0513 4.89803 31.4563 5.66666 31.6666C8.53333 32.4333 20 32.4333 20 32.4333C20 32.4333 31.4667 32.4333 34.3333 31.6666C35.1179 31.4447 35.83 31.0196 36.3978 30.4343C36.9655 29.849 37.3687 29.1243 37.5667 28.3333C38.0873 25.4459 38.3439 22.5172 38.3333 19.5833C38.352 16.6049 38.0954 13.6311 37.5667 10.7Z" stroke="#0080CC" stroke-width="2" stroke-linecap="round" stroke-linejoin="round"/>
<path id="Vector_2" d="M16.25 25.0333L25.8333 19.5833L16.25 14.1333V25.0333Z" stroke="#0080CC" stroke-width="2" stroke-linecap="round" stroke-linejoin="round"/>
</g>
</svg>
