<svg width="22" height="22" viewBox="0 0 22 22" fill="none" xmlns="http://www.w3.org/2000/svg">
<g clip-path="url(#clip0_4451_7203)">
<path d="M6.32369 3.87912L0.714233 18.1209H2.71214L4.46509 13.6703H10.4139L12.1669 18.1209H14.1648L8.55532 3.87912H6.32369ZM5.16534 11.8901L7.43904 6.11775L9.71274 11.8901H5.16534Z" fill="#DDDDDD"/>
<path d="M17.4147 7.04398H18.0357C18.0909 7.04398 18.1185 7.07108 18.1185 7.12529V14.2813C18.1185 14.3356 18.0909 14.3627 18.0357 14.3627H17.4147C17.3595 14.3627 17.3319 14.3356 17.3319 14.2813V7.12529C17.3319 7.07108 17.3595 7.04398 17.4147 7.04398Z" fill="#DDDDDD"/>
<path d="M14.2476 10.317H21.2029C21.2581 10.317 21.2857 10.3442 21.2857 10.3984V11.0083C21.2857 11.0625 21.2581 11.0896 21.2029 11.0896H14.2476C14.1924 11.0896 14.1648 11.0625 14.1648 11.0083V10.3984C14.1648 10.3442 14.1924 10.317 14.2476 10.317Z" fill="#DDDDDD"/>
</g>
<defs>
<clipPath id="clip0_4451_7203">
<rect width="20.5714" height="20.5714" fill="white" transform="translate(0.714233 0.714294)"/>
</clipPath>
</defs>
</svg>
