<svg width="14" height="14" viewBox="0 0 14 14" fill="none" xmlns="http://www.w3.org/2000/svg">
<g id="icon-base" clip-path="url(#clip0_3790_2745)">
<path id="Vector" d="M2.14342 13.8571C1.98124 13.8567 1.82191 13.8147 1.68079 13.735C1.53366 13.6542 1.41117 13.5352 1.32625 13.3908C1.24132 13.2463 1.1971 13.0817 1.19826 12.9143V1.08397C1.19827 0.916772 1.24297 0.752595 1.32779 0.608324C1.41261 0.464053 1.53447 0.344896 1.68084 0.26311C1.82721 0.181324 1.99281 0.139861 2.1606 0.142987C2.3284 0.146113 2.49232 0.193714 2.63553 0.280894L12.3507 6.19605C12.4887 6.28013 12.6028 6.39813 12.6819 6.53873C12.7611 6.67934 12.8026 6.83785 12.8026 6.99905C12.8026 7.16026 12.7611 7.31876 12.6819 7.45937C12.6028 7.59998 12.4887 7.71798 12.3507 7.80206L2.63559 13.7172C2.48764 13.8082 2.31729 13.8566 2.14342 13.857V13.8571ZM2.14362 0.948845C2.1202 0.949075 2.09723 0.955253 2.07688 0.966794C2.05566 0.978095 2.03798 0.995031 2.02582 1.01572C2.01366 1.03642 2.00749 1.06006 2.00799 1.08403V12.9143C2.00799 12.9382 2.01439 12.9616 2.02651 12.9822C2.03863 13.0028 2.05604 13.0198 2.07695 13.0315C2.09786 13.0432 2.12151 13.0491 2.14548 13.0487C2.16945 13.0482 2.19287 13.0414 2.21332 13.029L11.9285 7.11394C11.9482 7.10193 11.9645 7.08507 11.9758 7.06498C11.9871 7.04488 11.9931 7.02223 11.9931 6.99919C11.9931 6.97615 11.9871 6.95349 11.9758 6.9334C11.9645 6.9133 11.9482 6.89644 11.9285 6.88443L2.21332 0.969349C2.19247 0.956153 2.16832 0.949049 2.14362 0.948845Z" fill="#333333"/>
</g>
<defs>
<clipPath id="clip0_3790_2745">
<rect width="13.7143" height="13.7143" fill="white" transform="translate(0.143066 0.142822)"/>
</clipPath>
</defs>
</svg>
